<?xml version="1.0" encoding="UTF-8"?>
<svg id="OBJECTS" xmlns="http://www.w3.org/2000/svg" viewBox="0 0 940 385.5">
  <defs>
    <style>
      .cls-1 {
        stroke: #1c4732;
      }

      .cls-1, .cls-2, .cls-3, .cls-4, .cls-5, .cls-6, .cls-7, .cls-8, .cls-9, .cls-10 {
        fill: none;
      }

      .cls-1, .cls-3, .cls-4, .cls-6, .cls-7, .cls-8, .cls-9, .cls-10 {
        stroke-linecap: round;
      }

      .cls-1, .cls-3, .cls-6, .cls-7, .cls-8, .cls-10 {
        stroke-linejoin: round;
      }

      .cls-11 {
        fill: #95c47c;
      }

      .cls-11, .cls-12, .cls-13, .cls-14, .cls-15, .cls-16, .cls-17, .cls-18, .cls-19, .cls-20, .cls-21 {
        stroke-width: 0px;
      }

      .cls-12 {
        fill: #d2e6c7;
      }

      .cls-13 {
        fill: #037250;
      }

      .cls-14 {
        fill: #1c4732;
      }

      .cls-2 {
        stroke-width: 3px;
      }

      .cls-2, .cls-4, .cls-5, .cls-9 {
        stroke-miterlimit: 10;
      }

      .cls-2, .cls-8 {
        stroke: #364715;
      }

      .cls-3 {
        stroke: #776300;
      }

      .cls-15 {
        fill: #ebab25;
      }

      .cls-4, .cls-9 {
        stroke: #d37300;
      }

      .cls-16 {
        fill: #e1eeda;
      }

      .cls-17 {
        fill: #ca5b17;
      }

      .cls-5, .cls-7 {
        stroke: #937e02;
      }

      .cls-6 {
        stroke: #28523e;
      }

      .cls-18 {
        fill: #77b357;
      }

      .cls-19 {
        fill: #b3d5a1;
      }

      .cls-20 {
        fill: #34684e;
      }

      .cls-21 {
        fill: #68ab44;
      }

      .cls-9 {
        stroke-width: 1.03px;
      }

      .cls-10 {
        stroke: #b7a018;
        stroke-width: 1.5px;
      }
    </style>
  </defs>
  <path class="cls-16" d="m943.86,28.33c-21.44-.54-54.77,34.63-71.73,47.75-41.18,31.86-78.29,53.09-127.85,66.37-33.13,8.88-70.26-2.11-101.61,11.81-26.21,11.64-45.35,38.5-73.29,45.47-46.2,11.52-74.29-40.89-105.29-64.64-14.8-11.34-35.04-12.65-53.04-7.8-22.53,6.07-43.82,18.78-67.58,19.84-31.7,1.41-36.11-29.94-60.99-41.14-19.45-8.76-42.36-3.15-63.13-8.01-35.23-8.24-55.38-42.13-80.93-64.61C78.74-19.13-11.56,14.35-49.71,75.04c-13.21,21.02-12.56,32.35-12.56,55.98v137.52l1043.5,9.38,8-248.44c-15.12-.38-30.25-.77-45.37-1.15Z"/>
  <g>
    <path class="cls-19" d="m245.71,255.47c-3.79,4.83-10.82,5.25-16.97,5.27-89.91.21-184.34,2.77-274.26,2.98-3.83-13.76-6.47-27.85-7.88-42.06-.34-3.38,1.09-8.76-1.45-11.01,3.95-2.14,10.64-3.2,14.97-2.01,23.79-5.48,47.75-3.99,72.14-5.07,72.02-3.2,140.77,25.11,212.81,27.71.84,9.3.74,14.85.63,24.19Z"/>
    <path class="cls-19" d="m749.9,268.55h230.22c4,0,11.68-.55,15.68-.55v-50.34c-114.69-33.44-240.88-25.85-350.73,21.1,36.58,8.39,68.26,21.41,104.84,29.79Z"/>
    <path class="cls-19" d="m586.43,248.99c-17.63-7.29-35.25-14.59-52.88-21.88-13.34-5.52-26.75-11.07-40.76-14.56-55.43-13.82-113.16,5.58-166.87,25.06,59.24,29.07,126.33,43.98,191.93,36.84,23.2-2.53,49.46-12.05,68.57-25.46Z"/>
    <path class="cls-12" d="m1000.4,397.59c.95-4.92,1.9-71.52,2.85-76.44,2.82-14.6-.68-31.69-3.03-46.34-58.71-4.37-116.56-17.99-174.52-26.75-58.79-8.89-110.5-26.23-170-29.1-56.88-2.75-117.6,24.84-173.77,29.56-44.03,3.7-85.32-14.63-127.73-22.97-44.81-8.81-72.28-10.17-117.38-4.18-38.34,5.09-93.57,27.98-132.78,26.7-53.97-1.77-105.74,10.6-158.49,1.2-2.35,30.25,2.2,136.42.5,148.33"/>
  </g>
  <path class="cls-11" d="m281.61,399.55c64.5-67.5,144.64-101.68,210.03-118.91,159.37-42.01,324.08-31.56,487.38-31.1,30,.08,43-1.48,43-1.48v149.53l-740.41,1.96Z"/>
  <g>
    <path class="cls-14" d="m409.43,309.77c-2.1-4.8-4.34-9.79-8.41-13.09-4.31-3.5-10.19-4.61-15.72-4.15-2.22.18-4.8.44-7.44.82-5.22.74-10.44-1.94-12.6-6.75-3.3-7.38-11.3-12.88-19.46-11.92-3.06.36-6.35,1.43-9.07-.02-2.24-1.2-3.33-3.73-4.58-5.94-5.83-10.25-18.14-15.7-29.93-15.49-7.86.14-15.47,2.48-22.53,6.03-5.52,2.79-12.09,2.34-17.12-1.26-7.4-5.31-17.48-7.18-26.65-5.67-12.59,2.07-25.86,13.02-35.68,21.16,22.88,2.25,44.69,4.07,67.5,7.21,49.06,6.74,98.52,16.73,141.69,29.07Z"/>
    <path class="cls-14" d="m146.05,280.54c-.63-6.95-3.14-13.72-7.19-19.39-9.91-13.87-28.04-19.94-45.08-19.52-13.87.34-26.73,2.83-38.26,9.67-3.73,2.21-8.47,1.62-11.57-1.41-1.35-1.33-2.73-2.62-4.28-3.71-6.21-4.35-14.54-4.79-21.83-2.7-3.62,1.04-6.71,2.44-9.63,4.16-4.99,2.93-11.39,1.76-15.13-2.65-2.17-2.56-4.17-4.77-4.64-5.19-18.35-15.82-41.73-4.6-55.14,11.82-6.36,7.79-10.54,16.33-12.28,26.19-.41,2.34-1.68,22.26-3.89,22.74,73.62-16.18,153.59-17.61,228.93-20.01Z"/>
  </g>
  <g>
    <path class="cls-21" d="m-116.05,393.19l357.25,14.57s31.85-7.35,39.74-14.37c10.38-9.24,24.59-19.63,43.04-32.48,38.95-27.14,88.46-48.29,88.46-48.29-2.19-.78-4.41-1.55-6.65-2.32-137.18-46.95-372.56-73.41-516.32-58.51l-5.52,141.41Z"/>
    <g>
      <path class="cls-11" d="m197.16,338.24c14.7,2.27,31.89,4.73,46.59,7,26.25,4.05,52.68,8.15,77.68,17.12-5.5,2.4-40.17,29.54-57.28,46.21-.5-.02-123.93-4.64-123.93-4.64l-8.45-68.58s65.38,3.16,65.39,2.89Z"/>
      <g>
        <path class="cls-5" d="m142.35,332.39c5.09,31.04,8.57,71.66,8.53,72.41"/>
        <path class="cls-5" d="m155.96,333.03c.25,2.33,8.57,71.66,8.53,72.41"/>
        <path class="cls-5" d="m170.7,333.71c.25,2.33,8.57,71.66,8.53,72.41"/>
        <path class="cls-7" d="m186,334.43c.25,2.33,8.57,71.66,8.53,72.41"/>
        <path class="cls-7" d="m202.18,340.53c.25,2.33,7.7,66.27,7.67,67.02"/>
        <path class="cls-7" d="m215.85,343.82c.25,2.33,7.64,63.61,7.6,64.37"/>
        <path class="cls-7" d="m231.62,346.83c.25,2.33,7.06,59.8,7.02,60.55"/>
        <path class="cls-7" d="m249.2,351.44c.25,2.33,6.1,55.97,6.07,56.72"/>
        <path class="cls-7" d="m264.8,352.16c.19,1.79,3.71,34.03,5.3,49.09"/>
        <path class="cls-7" d="m284.47,356.77c.14,1.3,1.58,17.25,2.81,31.27"/>
        <path class="cls-7" d="m302.75,360.75c.03.27.59,5.75,1.32,12.94"/>
      </g>
    </g>
    <g>
      <path class="cls-18" d="m93.89,294.95s4.47-30.76,6.51-42.12c38.8,3.29,87.24,7.5,130.21,16.11-9.62,19.96-23.83,49.33-33.45,69.3-.12.62-65.39-2.89-65.39-2.89l-37.89-40.4Z"/>
      <path class="cls-3" d="m100.73,257.82c-.31.55,84.94,9.76,125.58,16.04"/>
      <path class="cls-3" d="m99.84,268.76c-.31.55,81.21,10.44,121.85,16.72"/>
      <path class="cls-3" d="m96.48,281.81c-.3.56,78.82,9.25,119.59,14.58"/>
      <path class="cls-3" d="m94.32,294.83c.28-.34,72.08,7.67,115.28,13.1"/>
      <path class="cls-3" d="m110.19,310.84c20.63,2.06,63.01,5.99,94.75,9.62"/>
      <path class="cls-3" d="m123.71,325.59c21.04,1.09,50.88,2.61,75.67,4.25"/>
    </g>
    <g>
      <path class="cls-11" d="m100.4,252.83l-6.16,42.7-206.49,11.39c-.82-.61,1.38-53.88,1.72-55.14,8.58-1.26,19.52-1.63,29.84-2.29,52.63-3.36,113.02-3.64,181.09,3.33Z"/>
      <g>
        <line class="cls-1" x1="7.85" y1="247.9" x2="10.4" y2="299.8"/>
        <line class="cls-1" x1="27.56" y1="248.82" x2="29.7" y2="298.36"/>
        <line class="cls-1" x1="42.04" y1="249.11" x2="44.31" y2="297.56"/>
        <line class="cls-1" x1="56.6" y1="249.79" x2="58.56" y2="296.05"/>
        <line class="cls-1" x1="72.21" y1="251.36" x2="73.59" y2="295.55"/>
        <line class="cls-1" x1="87.05" y1="252.05" x2="87.65" y2="294.66"/>
      </g>
    </g>
    <g>
      <path class="cls-21" d="m2.19,300.61c5.48,35.41,3.14,98.16,3.14,98.16-.04.76,134.64,4.39,134.64,4.39,0,0-6.11-48.87-8.2-67.81,0,0-24.94-28.83-37.89-40.4-28.85.48-91.69,5.66-91.69,5.66Z"/>
      <g>
        <line class="cls-7" x1="5.49" y1="313.59" x2="112.5" y2="316.14"/>
        <line class="cls-7" x1="7.86" y1="300.9" x2="101.56" y2="303.13"/>
        <line class="cls-7" x1="6.58" y1="328.38" x2="124.93" y2="329.94"/>
        <line class="cls-7" x1="5.84" y1="344.25" x2="131.25" y2="346.69"/>
        <line class="cls-7" x1="7.82" y1="360.25" x2="133.22" y2="362.69"/>
        <line class="cls-7" x1="7.04" y1="376.81" x2="132.45" y2="379.26"/>
      </g>
    </g>
    <g>
      <path class="cls-21" d="m196.01,338.73l34.57-69.84s13.9,2.12,31.32,5.3c19.25,3.52,42.68,8.25,53.75,10.94.85.21,1.77.42,2.74.65,10.83,2.55,29.06,6.57,46.03,11.37,25.89,7.32,49.9,16.28,49.9,16.28l-92.9,48.92-125.42-23.63Z"/>
      <path class="cls-10" d="m208.09,341.66c10.01-19.03,22.82-48.18,35.81-69.9"/>
      <path class="cls-10" d="m221.97,342.59c10.01-19.03,21.89-46.59,34.89-68.31"/>
      <path class="cls-10" d="m233.42,348.81c10.01-19.03,24.11-50.47,37.1-72.18"/>
      <path class="cls-10" d="m250.43,349.6c10.01-19.03,22.65-48.12,35.64-69.83"/>
      <path class="cls-10" d="m267.88,353.06c10.01-19.03,22.22-48.09,35.22-69.81"/>
      <path class="cls-10" d="m282.68,356.41c9.92-18.86,22.82-48.14,35.7-69.79"/>
      <path class="cls-10" d="m301.8,360.71c9.88-18.78,22.7-47.88,35.53-69.51"/>
      <path class="cls-10" d="m321.46,361.62c9.44-17.95,21.59-45.35,33.84-66.62"/>
      <path class="cls-10" d="m347.43,346.89c7.25-14.81,15.43-32.11,23.73-47.03"/>
      <path class="cls-10" d="m375.49,332.14c4.32-8.85,8.85-17.96,13.45-26.5"/>
    </g>
  </g>
  <g>
    <g>
      <path class="cls-17" d="m152.15,224.86l-1.97,45.12,7.65.34c.19-1.5.11-45.46.11-45.46"/>
      <path class="cls-14" d="m182.12,232.97s12.62-8.34,7.66-19.15c-3.44-7.51-11.13-9.78-16.98-9.12-1.06-4.08-6-15.59-19.3-16.59-8.18-.62-16.81,2.9-21.91,9.24-4.73,5.88-3.09,15.34-3.09,15.34-4.06,6-4.9,18.04-1.08,23.73,5.52,8.2,16.61,12.03,26.04,9.12,0,0,7.48,6.21,18.3,2.06,8.98-3.44,10.36-14.63,10.36-14.63Z"/>
      <g>
        <path class="cls-15" d="m154.06,199.23c0,.93-.75,1.68-1.68,1.68s-1.68-.75-1.68-1.68.75-1.68,1.68-1.68,1.68.75,1.68,1.68Z"/>
        <path class="cls-15" d="m141.86,211.06c-.83.42-1.84.09-2.26-.73-.42-.83-.09-1.84.73-2.26.83-.42,1.84-.09,2.26.73.42.83.09,1.84-.73,2.26Z"/>
        <circle class="cls-15" cx="154.06" cy="215.05" r="1.68"/>
      </g>
    </g>
    <g>
      <path class="cls-17" d="m195.42,225.71l-2.04,46.79,7.71.39c.19-1.5.11-47.18.11-47.18"/>
      <path class="cls-20" d="m169.74,232.97s-12.62-8.34-7.66-19.15c3.44-7.51,11.13-9.78,16.98-9.12,1.06-4.08,6-15.59,19.3-16.59,8.18-.62,16.81,2.9,21.91,9.24,4.73,5.88,3.09,15.34,3.09,15.34,4.06,6,7.03,16.83,2.42,24.46-6.75,11.16-17.96,11.3-27.38,8.39,0,0-7.48,6.21-18.3,2.06-8.98-3.44-10.36-14.63-10.36-14.63Z"/>
      <g>
        <path class="cls-15" d="m190.09,209.56c0,.93-.75,1.68-1.68,1.68s-1.68-.75-1.68-1.68.75-1.68,1.68-1.68,1.68.75,1.68,1.68Z"/>
        <path class="cls-15" d="m178.11,221.54c0,.93-.75,1.68-1.68,1.68s-1.68-.75-1.68-1.68.75-1.68,1.68-1.68,1.68.75,1.68,1.68Z"/>
        <circle class="cls-15" cx="209.8" cy="209.56" r="1.68"/>
        <path class="cls-15" d="m199.46,197.55c0,.93-.75,1.68-1.68,1.68s-1.68-.75-1.68-1.68.75-1.68,1.68-1.68,1.68.75,1.68,1.68Z"/>
        <path class="cls-15" d="m199.46,223.32c0,.93-.75,1.68-1.68,1.68s-1.68-.75-1.68-1.68.75-1.68,1.68-1.68,1.68.75,1.68,1.68Z"/>
      </g>
    </g>
  </g>
  <g>
    <g>
      <g>
        <path class="cls-12" d="m571.62,380.22c-.67-9.88,4.59-28.36,9.58-37.36,1.05-1.9,2.11-3.81,3.42-5.6,3.93-5.38,9.92-9.47,15.8-13.46,1.77,11.79-1.8,24.78-9.68,34.71-5.95,7.49-14.3,13.67-19.11,21.7"/>
        <path class="cls-1" d="m573.49,377.3c4.52-9.39,8.3-19.58,13.12-28.82,4.27-8.18,8.78-16.23,13.52-24.15"/>
      </g>
      <g>
        <path class="cls-12" d="m569.95,358.55l-11.01-31.4c-1.14-3.25-2.28-6.51-2.95-9.89-1.55-7.87-.44-16.08-2-23.95-1.77-8.89-6.8-16.73-11.73-24.34,2.11,6.69,3.08,14.66,4.5,21.53.59,2.86,1.13,5.8.73,8.7-.82,5.84-5.35,10.83-5.42,16.73-.05,4.22,2.21,8.08,4.4,11.69,7.87,12.98,15.75,25.96,23.62,38.94"/>
        <path class="cls-1" d="m542.35,269.38c4.22,9.37,8.53,19.07,8.65,29.35.07,5.68-1.15,11.33-.83,17,.33,5.86,2.28,11.5,4.44,16.95,4.28,10.81,9.45,21.27,15.45,31.23"/>
      </g>
      <g>
        <path class="cls-12" d="m572.92,377.1c4.1-4.58,8.31-9.24,13.69-12.23,1.01-.56,2.21-1.07,3.29-.67,5.59,2.06,11.92,2.3,16.74,5.8,1.78,1.29,3.52,2.91,4.05,5.05.26,1.05-.16,1.47-.5,2.49s-.98,1.92-1.62,2.78c-.87,1.16-1.79,2.28-2.72,3.39-2.14,2.59-2.25,2.73-4.39,5.32,0,0-1.05-5.84-1.33-10.05-.15-2.27-.51-4.62-1.84-6.47-4.98-.66-10.33,0-15.11,1.53-1.22.39-2.44.87-3.47,1.62-.96.69-2.03,1.53-2.8,2.43-1.55,1.82-3.29,3.58-4.2,5.79"/>
        <path class="cls-13" d="m585.73,365.38c-3.9,2.36-9.36,7.01-12.97,11.73,0,0-.2,6.03,0,7.44.24-.45,2.24-3.63,2.53-4.04,2.49-3.58,5.99-6.11,10.23-7.13,4.81-1.16,9.06-1.12,12.77-.86-2.79-2.27-7.38-5.18-10.67-6.62-.6-.26-1.81-.56-1.89-.52Z"/>
        <path class="cls-1" d="m601.41,388.51c1.29-2.55,2.6-5.13,3.23-7.92s.52-5.85-.9-8.33c-1.79-3.13-5.3-4.8-8.67-6.09-2.19-.84-4.41-1.59-6.66-2.26"/>
      </g>
      <g>
        <path class="cls-12" d="m571.24,388.98c-2.85-3.36-5.7-6.72-8.56-10.09-2.17-2.55-4.41-5.17-7.37-6.73-2.81-1.48-6.05-1.91-9.21-2.14-1.63-.12-3.35-.17-4.79.59-1.66.88-2.61,2.68-3.17,4.48-.84,2.7-1,5.62-.45,8.4-2.95-3.43-5.01-8.62-3.9-13,1.11-4.38,4.45-8.14,8.68-9.75,3.83-1.46,13.59-1.41,13.6-1.04,2.48,1.9,5.73,3.46,7.08,6.28.76,1.58,5.81,12.25,7.37,15.09,0,0,.34,4.67.71,7.92Z"/>
        <path class="cls-1" d="m570.76,383.44c-2.38-3.62-4.98-7.1-7.78-10.4-2.48-2.93-5.2-5.78-8.62-7.52-3.42-1.74-7.69-2.21-11.06-.36-2.52,1.39-4.9,2.95-6.28,5.48-1.72,3.17-1.28,9.8.66,12.85"/>
      </g>
      <path class="cls-2" d="m570.91,320.85c.73,40.85.86,83.05.33,118.25"/>
      <path class="cls-13" d="m571.48,330.18c-.14-2.29-1.44-4.33-2.54-6.34-5.52-10.05-6.98-21.93-6.14-33.36.84-11.44,3.86-22.59,6.86-33.65,2.09,5.53,4.69,13.21,6.77,18.74,2.47,6.54.36,14.06.47,20.95.19,11.86.4,23.13-5.42,33.67Z"/>
    </g>
    <g>
      <path class="cls-2" d="m445.88,278.5c.73,40.85.86,125.4.33,160.6"/>
      <path class="cls-13" d="m445.27,280.8c-7.81-4.87-15.07-17.03-18.01-25.75-2.03-6.01-4.34-11.92-6.91-17.71-.9-2.03-1.88-4.11-3.55-5.58-1.81-1.6-4.21-2.31-6.45-3.21-4.31-1.73-8.28-4.33-11.59-7.59,3.32,13.96,19.28,23.36,22.55,37.33.64,2.71.7,5.52,1.23,8.26.72,3.67,2.28,7.13,4.15,10.36,4.33,7.5,11.37,14.17,18.58,18.97"/>
      <g>
        <path class="cls-13" d="m446.53,386.8c4.46-4.3,10.51-10.09,15.75-13.42,3.15-2,7.84-4.65,11.29-3.21,1.01,2.85,2.77,7.68,3.78,10.53-1.64-.06-3.3-.1-4.95-.14-4.34-.09-8.53,1.61-11.57,4.71-4.5,4.59-10.13,9.79-12.96,13.83l-1.33-12.31Z"/>
        <path class="cls-12" d="m473.57,370.18c3.46,1.22,7.13,3.48,10.03,5.72,1.19.92,2.34,1.95,3.12,3.24,1.3,2.15,1.44,4.77,1.54,7.28.06,1.5.12,3.06-.43,4.46-.45,1.17-1.29,2.15-2.04,3.15-2.35,3.16-3.97,6.85-4.69,10.72-3.01-5.13-3.57-11.54-2.78-17.43.14-1.07.33-2.15.2-3.22-.13-1.11-.6-2.14-1.06-3.16-1.54-3.4-3.09-7.48-3.89-10.77Z"/>
      </g>
      <path class="cls-18" d="m447.48,294.99c-4.03-13.19-9.12-24.92-13.15-38.11-2.93-9.58-5.88-19.29-6.3-29.3-.39-9.27,1.39-18.47,2.47-27.69,1.56-13.39,1.64-26.9,1.71-40.37,17.15,43.44,21.7,89.21,15.28,135.47Z"/>
      <g>
        <path class="cls-12" d="m462.16,311.22c3.13-3.47,3.95-3.63,8.19-5.59,4.24-1.96,9.33-2.49,13.56-.52,3.24,1.51,5.68,4.29,7.91,7.07,6.95,8.65,12.93,18.08,17.77,28.07-18.86-2.66-36.71-13.28-47.43-29.02"/>
        <path class="cls-1" d="m462.44,311.62c7.84-4.04,15.06-1.01,20.53,3.21,5.47,4.22,9.72,9.78,14.39,14.87,3.51,3.82,7.42,7.47,11.96,9.87"/>
      </g>
      <g>
        <path class="cls-13" d="m432.2,308.98c4.16,8.32,6.12,17.73,5.64,27.02-.18,3.43-.68,6.85-.71,10.29-.1,10.38,5.91,21.61,10,31.15v1.53c-12.9-10.89-17.57-28.81-18.18-45.68-.1-2.84-.84-6.71-2.77-8.79.68-4.67,1.84-9.33,4.44-13.27.51-.78.81-1.45,1.59-2.24Z"/>
        <path class="cls-12" d="m428.64,358.77c-3.44-16.33-4.26-34.57,3.56-49.79-5.34-1.36-11.71-1.93-18.25-.97,1.92,12.39,2.02,24.65,7.28,36.03,2.51,5.43,5.09,11.14,7.4,14.73Z"/>
        <path class="cls-1" d="m423.08,307.53c-2.77,17.06-1.17,36.55,5.35,52.56"/>
      </g>
      <g>
        <path class="cls-15" d="m469.28,300.05c2.7-6.88,3.28-8.23,3.42-14.86.04-1.72.03-3.49-.61-5.09-.63-1.6-2.77-3.74-4.49-3.87-1.6-.13-3.11.87-4.07,2.16-.95,1.29-7.36,12.92-8.46,17.53.29,1.21.28,2.26.57,3.47.25,1.05.5,2.09.86,3.1.34.95.78,1.85,1.24,2.75,1.21,2.34,2.24,4.5,4.41,5.98,1.36-.61,6.72-10.15,7.12-11.16Z"/>
        <g>
          <line class="cls-4" x1="458.07" y1="297.14" x2="468.11" y2="276.96"/>
          <line class="cls-4" x1="459.48" y1="304.55" x2="471.34" y2="280.18"/>
          <path class="cls-4" d="m463.01,280.3c3.09,2.16,6.06,4.49,8.9,6.97"/>
          <path class="cls-4" d="m460.11,285.39c2.59,1.6,5.07,3.37,7.43,5.3,1.3,1.06,2.56,2.17,3.83,3.27"/>
          <path class="cls-4" d="m458.22,290.42c.78.64,1.56,1.29,2.34,1.93,2.9,2.4,5.8,4.81,8.52,7.41"/>
          <path class="cls-4" d="m457.73,296.95c3.13,2.7,5.5,4.73,8.64,7.43"/>
        </g>
      </g>
      <path class="cls-13" d="m462.16,311.22c-4.35-6.89-5.97-15.46-4.43-23.46.68-3.53,1.93-6.92,2.85-10.4,1.21-4.56,1.83-9.27,1.85-13.98-2.2,8.59-5.32,16.84-8.28,25.2-1.47,4.16-3.14,8.26-4.31,12.51-3.08,11.14-4.58,26.64-2.72,36.47"/>
    </g>
    <g>
      <path class="cls-13" d="m667.1,247.88c-4.61-6.82-3.78-16.5-3.77-24.94,0-6.09.68-12.16,1.35-18.22,2.5-22.53,4.99-45.06,7.49-67.58,6.4,10.57,13.66,21.71,14.19,34.05.49,11.37-4.22,22.23-6.5,33.37-3.15,15.39-2.6,31.33-12.76,43.32Z"/>
      <path class="cls-18" d="m664.76,242.92c-8.18-6.36-12.01-15.45-14.53-25.51-1.59-6.34-2.98-12.74-4.17-19.16-1.9-10.25-3.31-20.58-4.71-30.91-1.04-7.69-2.08-15.37-3.13-23.06,9.33,13.65,18.91,26.62,21.3,42.97.81,5.56.76,11.2,1.13,16.81.91,13.86.65,25.4,4.1,38.86Z"/>
      <g>
        <path class="cls-15" d="m665.99,285.71c-.09-7.36-.5-16.15.28-24.09.03-.32-.15-.57-.34-.31-3.01-8.45-7.74-16.28-13.83-22.87-.48-.52-.98-1.04-1.6-1.36-.44-.22-1.1-.23-1.79-.14-1.72.24-3.09,1.52-3.62,3.17-1.15,3.58-1.3,7.49-.8,11.24.61,4.62,2.15,9.06,3.79,13.42,1.74,4.63,6.39,7.13,9.83,10.69,2.93,3.03,6.14,6.82,8.09,10.25.24.43,0,0,0,0Z"/>
        <path class="cls-4" d="m644.48,246.54c3.59-.73,10.37-3.88,10.37-3.88"/>
        <path class="cls-4" d="m644.93,253.25s1.87-.67,2.99-1.15c3.52-1.52,7.04-3.03,10.56-4.55"/>
        <line class="cls-4" x1="646.63" y1="259.85" x2="661.87" y2="252.82"/>
        <path class="cls-4" d="m648.63,265.6c5.13-1.66,11.25-4.13,16.1-6.48"/>
        <path class="cls-4" d="m653.05,270.34c3.48-1.54,11.34-4.45,11.34-4.45"/>
        <line class="cls-4" x1="658.3" y1="274.45" x2="665.11" y2="271.64"/>
        <line class="cls-4" x1="649.67" y1="238.8" x2="664.73" y2="276.05"/>
        <line class="cls-4" x1="645.28" y1="242.05" x2="659.02" y2="276.05"/>
      </g>
      <g>
        <path class="cls-15" d="m667.7,293.93c1-13.97,12.17-28.81,16.12-33.66.8-.98,2.14-1.33,3.32-.87l2.32.92c1.35.53,2.1,1.98,1.75,3.4-1.24,4.95-4.07,15.98-5.8,19.99-3.42.22-6.6,1.1-9.75,2.44-1.4.59-2.81,1.34-3.65,2.6-.45.67-.71,1.44-.96,2.2-.38,1.13-.75,2.26-1.13,3.39-.07.22-.16.45-.36.57-.14.08-.3.09-.46.07-.69-.05-1.02-.49-1.41-1.05Z"/>
        <line class="cls-4" x1="686.12" y1="260.22" x2="672.87" y2="283.72"/>
        <line class="cls-9" x1="689.65" y1="261.39" x2="680.03" y2="281.8"/>
        <path class="cls-9" d="m682.87,262.54c2.92,1.16,4.5,1.78,7.42,2.94"/>
        <path class="cls-9" d="m680.03,266.22c2.92,1.16,5.79,2.29,8.71,3.45"/>
        <path class="cls-9" d="m677.22,270.18c3.43,1.42,10.64,4.25,10.64,4.25"/>
        <path class="cls-9" d="m675.07,273.76c3.43,1.42,11.5,4.74,11.5,4.74"/>
        <path class="cls-9" d="m673.34,277.92c3.43,1.42,11.97,4.45,11.97,4.45"/>
      </g>
      <g>
        <path class="cls-13" d="m669.74,332.77c2.6-10.66,6.59-21.87,11.32-31.77l-9.34-15.61c-1.63,4.52-2.48,8.92-3.12,13.69"/>
        <g>
          <path class="cls-12" d="m673.08,285.38c3.48-.74,7.41-2.71,10.96-2.44,3.55.27,7.15,1.57,9.55,4.19,5,5.47,3.2,14.08,4.92,21.3.83,3.48,2.53,6.79,2.6,10.37.08,4.59-2.54,8.74-5.07,12.57.49-6.69-4.27-13.66-8.04-19.21-4.72-6.94-9.11-14.12-13.12-21.5-.82-1.51-2.13-3.79-3.15-5.18"/>
          <path class="cls-1" d="m680.85,284.05c2.99,3.36,5.46,7.17,7.31,11.27,1.46,3.24,2.52,6.65,3.58,10.05,1.25,4.02,2.51,8.04,3.76,12.06,1.3,4.16,1.48,9.7.53,13.95"/>
        </g>
      </g>
      <g>
        <path class="cls-13" d="m633.86,267.49c2.49.8,4.82,2.12,6.79,3.84,2.54,2.21,4.45,5.03,6.8,7.44,3.11,3.18,6.98,5.6,11.19,7.01,2.22.74,6.01-.19,7.97,1.09-5.23-10.29-16.12-19.65-26.01-25.62l-6.75,6.24Z"/>
        <g>
          <path class="cls-12" d="m640.61,261.26c-2.11,2.2-4.34,4.3-6.66,6.27-1.35,1.15-2.73,2.25-3.97,3.51-2.46,2.49-4.31,5.51-6.14,8.5-3.2,5.23-6.43,10.55-8.07,16.45-.84-5.51-2.23-11.34-2.01-16.91.35-8.74,8.66-13.94,15.01-19.96,4.02,0,7.88,1.4,11.84,2.14Z"/>
          <path class="cls-1" d="m615.8,296.72c-.23,2.46.61-6.74,1.21-11.46.37-2.96.79-5.93,1.68-8.78,1.06-3.4,2.82-6.58,5.14-9.28,2.65-3.09,5.98-5.52,9.28-7.91"/>
        </g>
      </g>
      <g>
        <path class="cls-12" d="m654.02,305.18c-3.1.71-5.3,6.52-7.84,8.78-1.52,1.35-3.19,2.51-4.73,3.84-3.94,3.4-6.95,7.86-8.63,12.78-1.05-.96-3.23-4.43-3.76-6.94-.45-2.12-.63-4.33-.21-6.45.33-1.65,1.02-3.21,1.83-4.69,1.78-3.21,4.2-6.07,7.07-8.35,5.33.17,10.93.86,16.27,1.03Z"/>
        <path class="cls-13" d="m654.02,305.18c1.73,1.42,2.99,3.87,4.06,5.83.91,1.66,1.54,3.47,2.1,5.28,2.22,7.08,3.71,14.78,8.74,20.23-4.23-2.74-7.57-5.05-10.85-8.88-2.06-2.41-3.8-5.21-6.43-6.97-4.94-3.3-8.06-3.3-10.33-2.82,3.14-2.03,6.46-5.86,9.02-9.83,1.22-1.89,2.28-2.47,3.68-2.84Z"/>
        <path class="cls-1" d="m632.83,330.49c-1.25-5.54.12-11.62,3.63-16.09,1.11-1.42,2.42-2.68,3.64-4.01,1.7-1.85,3.25-3.86,4.6-5.98"/>
      </g>
      <g>
        <path class="cls-13" d="m683.04,344.29c-4.49,3.13-7.21,7.67-9.58,12.6-2.38,4.93-3.86,10.24-5.26,15.54-.75,2.84,1.22,6.38,1.18,9.32,2.33-4.74,5.01-9.83,7.59-14.44,3.32-5.93,14.47-17.83,19.51-22.38l-7.4.56-6.05-1.21Z"/>
        <g>
          <path class="cls-12" d="m683.04,344.29c3.88,4.24,6.61,9.4,10.04,14.01,3.43,4.62,11.55,12.15,15.7,14.09.27-8.67-5.74-23.04-12.17-28.87-4.77.6-8.81,1.47-13.57.77Z"/>
          <path class="cls-1" d="m690.58,344.31c7.16,9.3,15.07,16.77,18.2,28.08"/>
        </g>
      </g>
      <path class="cls-2" d="m665.99,242.05c2.51,59.07,3.5,137.93,2.6,197.05"/>
    </g>
  </g>
  <g>
    <g>
      <g>
        <path class="cls-14" d="m791.94,399.3c38.41-80.04,118.18-121.21,189.44-89.74,31.34,13.84,65.99,47.76,72.23,91.07l-261.67-1.33Z"/>
        <path class="cls-14" d="m709.25,397.7c26.51-55.25,81.57-83.66,130.76-61.94,21.63,9.55,45.55,32.97,49.86,62.86l-180.61-.92Z"/>
      </g>
      <g>
        <line class="cls-6" x1="757.17" y1="344.5" x2="782.67" y2="398.08"/>
        <line class="cls-6" x1="772.5" y1="335.97" x2="786.53" y2="398.14"/>
        <path class="cls-6" d="m806.54,330.26c0,3.72,4.37,69.27,4.37,69.27"/>
        <path class="cls-6" d="m725.52,373.44c-.41.06.21-.48.54-.24,10.16,7.29,25.34,17.48,35.49,24.77"/>
        <path class="cls-6" d="m839.94,335.62c14.74,21.95,29.48,43.9,44.22,65.85"/>
        <path class="cls-6" d="m876.69,313.51c2.42,27.53,7.06,60.82,12.26,87.96"/>
        <path class="cls-6" d="m833.94,334.52c-3.11,26.65-6.21,53.31-9.32,79.96"/>
        <path class="cls-6" d="m909.16,300.65c9.81,34.28,19.62,68.55,29.43,102.83"/>
        <line class="cls-6" x1="899.85" y1="303.13" x2="929.06" y2="400.63"/>
        <path class="cls-6" d="m857.73,323.03c.32,3.73.64,7.47.95,11.2.54,6.31,1.08,12.63,1.61,18.94.37,4.32.74,8.64,1.16,12.96"/>
        <path class="cls-6" d="m928.76,299.59c3.36,17.97,13.73,59.45,14.16,58.96"/>
        <path class="cls-6" d="m791.88,331.11c5.03,11.15,10.33,22.17,15.9,33.06"/>
      </g>
    </g>
    <g>
      <g>
        <path class="cls-14" d="m-81.86,424.79c46.61-93.51,143.43-141.6,229.92-104.84,38.03,16.17,80.09,55.8,87.67,106.4l-317.58-1.56Z"/>
        <path class="cls-14" d="m-130.84,399.3c38.41-80.04,118.18-121.21,189.44-89.74,31.34,13.84,65.99,47.76,72.23,91.07l-261.67-1.33Z"/>
      </g>
      <g>
        <path class="cls-14" d="m216.86,409.69c26.51-55.25,81.57-83.66,130.76-61.94,21.63,9.55,45.55,32.97,49.86,62.86l-180.61-.92Z"/>
        <line class="cls-6" x1="302.88" y1="341.52" x2="307.16" y2="409.23"/>
        <path class="cls-6" d="m289.31,344.44c7.39,20.58,14.62,46.31,19.03,67.73"/>
        <path class="cls-6" d="m255.64,363.48c12.29,18.2,24.57,36.4,36.86,54.6"/>
        <path class="cls-6" d="m268.01,353.35c8.11,24.94,16.31,50.08,29.34,72.83"/>
        <line class="cls-6" x1="243.08" y1="372.89" x2="279.67" y2="413.91"/>
        <path class="cls-6" d="m326.01,341.57c-2.11,24.73-5,49.39-8.66,73.93"/>
        <line class="cls-6" x1="344.12" y1="346.3" x2="321.04" y2="436.98"/>
        <path class="cls-6" d="m332.12,411.61c20.21-16.7,25.75-21.61,44.74-39.69"/>
        <path class="cls-6" d="m343.7,412.24c18.45-12.64,23.32-15.84,42.25-27.76"/>
      </g>
    </g>
    <g>
      <line class="cls-6" x1="-28.71" y1="359.39" x2="9.35" y2="427.94"/>
      <path class="cls-6" d="m16.79,324.94c1.23,4.75,26.56,103.01,26.56,103.01"/>
      <path class="cls-6" d="m53.06,312.42c1.73,39.54,1.93,77.56.64,117.11"/>
      <path class="cls-6" d="m35.06,317.75c5.49,15.21,11.92,30.08,19.26,44.49"/>
      <line class="cls-6" x1="78.03" y1="308.72" x2="70.89" y2="425.53"/>
      <path class="cls-6" d="m106.64,310.92c-7.77,37.79-14.35,75.82-19.71,114.02"/>
      <line class="cls-6" x1="97.35" y1="359.39" x2="140.43" y2="317.58"/>
      <path class="cls-6" d="m158.05,326.54c-8.14,21.89-16.28,43.79-24.42,65.68-4.92,13.22-8.05,19.9-11.53,33.56"/>
      <path class="cls-6" d="m146.69,427.94c-1.86,3.63,29.66-58,41.55-81.24"/>
      <line class="cls-6" x1="148.56" y1="429.53" x2="202.35" y2="359.39"/>
      <line class="cls-6" x1="188.84" y1="426.28" x2="219.42" y2="383.46"/>
    </g>
  </g>
  <g>
    <line class="cls-8" x1="758.95" y1="259.72" x2="759.2" y2="264.03"/>
    <line class="cls-8" x1="761.62" y1="263.8" x2="762.11" y2="261.18"/>
    <path class="cls-8" d="m755.38,261.3c.39,1.09.79,2.18,1.18,3.27"/>
    <g>
      <path class="cls-8" d="m792.35,296.55c0,.92.11,1.84.32,2.74"/>
      <path class="cls-8" d="m795.11,296.05v3.75"/>
    </g>
    <g>
      <path class="cls-8" d="m721.86,288.05v4"/>
      <path class="cls-8" d="m725.84,289.05c-.24,1-.48,2-.72,3.01"/>
      <path class="cls-8" d="m718.33,290.06l.73,2.51"/>
    </g>
    <g>
      <path class="cls-8" d="m728.11,328.8v4.25"/>
      <path class="cls-8" d="m730.82,333.29c.26-1.08.51-2.16.77-3.25"/>
      <path class="cls-8" d="m724.31,329.82c.24,1.09.47,2.17.71,3.26"/>
    </g>
    <g>
      <path class="cls-8" d="m908.47,258.87c.66,1.01,1.11,2.16,1.31,3.35"/>
      <path class="cls-8" d="m912.02,256.23c.14,2.11.27,4.22.41,6.33"/>
      <path class="cls-8" d="m914.78,259.55v2.67"/>
    </g>
    <g>
      <path class="cls-8" d="m924.06,274.23c.14,1.11.28,2.21.43,3.32"/>
      <path class="cls-8" d="m926.72,271.23c.14,1.89.28,3.77.43,5.66"/>
    </g>
    <g>
      <path class="cls-8" d="m896.47,290.55c.21,1.11.43,2.23.64,3.34"/>
      <path class="cls-8" d="m899.7,287.23c.12,2.33.24,4.67.36,7"/>
      <path class="cls-8" d="m903.11,290.55v3.33"/>
    </g>
    <g>
      <path class="cls-8" d="m757.11,307.55v-3"/>
      <path class="cls-8" d="m760.11,302.55c-.07,1.34.06,2.69.39,3.99"/>
    </g>
    <g>
      <path class="cls-8" d="m628.78,359.55v4"/>
      <path class="cls-8" d="m631.78,357.89v5.67"/>
    </g>
    <g>
      <path class="cls-8" d="m649.13,377.88c.35.88.71,1.76,1.06,2.64"/>
      <path class="cls-8" d="m652.78,380.22v-5.67"/>
      <path class="cls-8" d="m655.4,380.88c.14-1.22.29-2.44.43-3.65"/>
    </g>
    <g>
      <path class="cls-8" d="m592.78,307.55c-.08,1.15.14,2.31.61,3.36"/>
      <path class="cls-8" d="m597.02,305.23c.13,1.89.27,3.77.4,5.66"/>
      <path class="cls-8" d="m600.46,310.55c-.13-1.23-.03-2.48.31-3.67"/>
    </g>
    <g>
      <path class="cls-8" d="m636.79,286.55c.34,1.19.45,2.44.31,3.67"/>
      <path class="cls-8" d="m639.53,285.21c.22,1.67.44,3.33.66,5"/>
    </g>
    <path class="cls-8" d="m716.16,257.88c.29,1.34.58,2.68.88,4.03"/>
    <path class="cls-8" d="m719.81,255.22c-.15,2-.11,4.02.14,6.02"/>
    <g>
      <line class="cls-8" x1="514.45" y1="299.55" x2="514.45" y2="295.54"/>
      <line class="cls-8" x1="518.45" y1="299.89" x2="518.45" y2="295.22"/>
    </g>
    <g>
      <line class="cls-8" x1="527.78" y1="346.55" x2="527.78" y2="342.89"/>
      <line class="cls-8" x1="531.11" y1="346.22" x2="531.11" y2="339.55"/>
      <line class="cls-8" x1="535.11" y1="346.89" x2="535.11" y2="343.89"/>
    </g>
    <g>
      <line class="cls-8" x1="468.45" y1="348.55" x2="468.45" y2="352.22"/>
      <line class="cls-8" x1="472.11" y1="347.22" x2="472.11" y2="352.23"/>
    </g>
    <g>
      <line class="cls-8" x1="499.11" y1="374.22" x2="499.11" y2="377.9"/>
      <line class="cls-8" x1="502.78" y1="370.89" x2="502.78" y2="377.92"/>
      <line class="cls-8" x1="507.11" y1="374.22" x2="507.11" y2="377.29"/>
    </g>
    <g>
      <line class="cls-8" x1="387.11" y1="339.89" x2="387.11" y2="343.22"/>
      <line class="cls-8" x1="391.11" y1="337.22" x2="391.11" y2="343.92"/>
    </g>
    <g>
      <line class="cls-8" x1="401.45" y1="368.89" x2="401.45" y2="364.89"/>
      <line class="cls-8" x1="405.45" y1="368.55" x2="405.45" y2="363.21"/>
      <line class="cls-8" x1="411.45" y1="369.55" x2="411.45" y2="365.87"/>
    </g>
  </g>
</svg>