<?xml version="1.0" encoding="utf-8"?>
<!-- Generator: Adobe Illustrator 27.8.1, SVG Export Plug-In . SVG Version: 6.00 Build 0)  -->
<svg version="1.1" id="OBJECTS" xmlns="http://www.w3.org/2000/svg" xmlns:xlink="http://www.w3.org/1999/xlink" x="0px" y="0px"
	 viewBox="0 0 940 385.5" style="enable-background:new 0 0 940 385.5;" xml:space="preserve">
<style type="text/css">
	.st0{clip-path:url(#SVGID_00000073679389410307126640000007445686858972922499_);fill:#E1EEDA;}
	.st1{clip-path:url(#SVGID_00000073679389410307126640000007445686858972922499_);}
	.st2{fill:#B3D5A1;}
	.st3{fill:#D2E6C7;}
	.st4{clip-path:url(#SVGID_00000073679389410307126640000007445686858972922499_);fill:#95C47C;}
	.st5{fill:#1C4732;}
	.st6{fill:#68AB44;}
	.st7{fill:#95C47C;}
	.st8{fill:none;stroke:#937E02;stroke-miterlimit:10;}
	.st9{fill:none;stroke:#937E02;stroke-linecap:round;stroke-linejoin:round;}
	.st10{fill:#77B357;}
	.st11{fill:none;stroke:#776300;stroke-linecap:round;stroke-linejoin:round;}
	.st12{fill:none;stroke:#1C4732;stroke-linecap:round;stroke-linejoin:round;}
	.st13{fill:none;stroke:#B7A018;stroke-width:1.5;stroke-linecap:round;stroke-linejoin:round;}
	.st14{fill:#CA5B17;}
	.st15{fill:#EBAB25;}
	.st16{fill:#34684E;}
	.st17{fill:#037250;}
	.st18{fill:none;stroke:#364715;stroke-width:3;stroke-miterlimit:10;}
	.st19{fill:none;stroke:#D37300;stroke-linecap:round;stroke-miterlimit:10;}
	.st20{fill:none;stroke:#D37300;stroke-width:1.03;stroke-linecap:round;stroke-miterlimit:10;}
	.st21{fill:none;stroke:#28523E;stroke-linecap:round;stroke-linejoin:round;}
	.st22{fill:none;stroke:#364715;stroke-linecap:round;stroke-linejoin:round;}
</style>
<g>
	<defs>
		<rect id="SVGID_1_" width="941" height="386"/>
	</defs>
	<clipPath id="SVGID_00000083795308817055051000000010426054779990968239_">
		<use xlink:href="#SVGID_1_"  style="overflow:visible;"/>
	</clipPath>
	<path style="clip-path:url(#SVGID_00000083795308817055051000000010426054779990968239_);fill:#E1EEDA;" d="M943.9,28.3
		c-21.4-0.5-54.8,34.6-71.7,47.8c-41.2,31.9-78.3,53.1-127.8,66.4c-33.1,8.9-70.3-2.1-101.6,11.8c-26.2,11.6-45.3,38.5-73.3,45.5
		c-46.2,11.5-74.3-40.9-105.3-64.6c-14.8-11.3-35-12.7-53-7.8c-22.5,6.1-43.8,18.8-67.6,19.8c-31.7,1.4-36.1-29.9-61-41.1
		c-19.5-8.8-42.4-3.2-63.1-8c-35.2-8.2-55.4-42.1-80.9-64.6C78.7-19.1-11.6,14.4-49.7,75c-13.2,21-12.6,32.3-12.6,56v137.5
		l1043.5,9.4l8-248.4C974.1,29.1,959,28.7,943.9,28.3L943.9,28.3z"/>
	<g style="clip-path:url(#SVGID_00000083795308817055051000000010426054779990968239_);">
		<path class="st2" d="M245.7,255.5c-3.8,4.8-10.8,5.2-17,5.3c-89.9,0.2-184.3,2.8-274.3,3c-3.8-13.8-6.5-27.9-7.9-42.1
			c-0.3-3.4,1.1-8.8-1.5-11c4-2.1,10.6-3.2,15-2c23.8-5.5,47.8-4,72.1-5.1c72-3.2,140.8,25.1,212.8,27.7
			C245.9,240.6,245.8,246.1,245.7,255.5L245.7,255.5z"/>
		<path class="st2" d="M749.9,268.5h230.2c4,0,11.7-0.5,15.7-0.5v-50.3c-114.7-33.4-240.9-25.9-350.7,21.1
			C681.6,247.2,713.3,260.2,749.9,268.5L749.9,268.5z"/>
		<path class="st2" d="M586.4,249c-17.6-7.3-35.2-14.6-52.9-21.9c-13.3-5.5-26.8-11.1-40.8-14.6c-55.4-13.8-113.2,5.6-166.9,25.1
			c59.2,29.1,126.3,44,191.9,36.8C541,271.9,567.3,262.4,586.4,249L586.4,249z"/>
		<path class="st3" d="M1000.4,397.6c1-4.9,1.9-71.5,2.8-76.4c2.8-14.6-0.7-31.7-3-46.3c-58.7-4.4-116.6-18-174.5-26.8
			c-58.8-8.9-110.5-26.2-170-29.1c-56.9-2.8-117.6,24.8-173.8,29.6c-44,3.7-85.3-14.6-127.7-23c-44.8-8.8-72.3-10.2-117.4-4.2
			c-38.3,5.1-93.6,28-132.8,26.7c-54-1.8-105.7,10.6-158.5,1.2c-2.3,30.2,2.2,136.4,0.5,148.3"/>
	</g>
	<path style="clip-path:url(#SVGID_00000083795308817055051000000010426054779990968239_);fill:#95C47C;" d="M281.6,399.5
		c64.5-67.5,144.6-101.7,210-118.9c159.4-42,324.1-31.6,487.4-31.1c30,0.1,43-1.5,43-1.5v149.5L281.6,399.5L281.6,399.5z"/>
	<g style="clip-path:url(#SVGID_00000083795308817055051000000010426054779990968239_);">
		<path class="st5" d="M409.4,309.8c-2.1-4.8-4.3-9.8-8.4-13.1c-4.3-3.5-10.2-4.6-15.7-4.1c-2.2,0.2-4.8,0.4-7.4,0.8
			c-5.2,0.7-10.4-1.9-12.6-6.8c-3.3-7.4-11.3-12.9-19.5-11.9c-3.1,0.4-6.4,1.4-9.1,0c-2.2-1.2-3.3-3.7-4.6-5.9
			c-5.8-10.2-18.1-15.7-29.9-15.5c-7.9,0.1-15.5,2.5-22.5,6c-5.5,2.8-12.1,2.3-17.1-1.3c-7.4-5.3-17.5-7.2-26.6-5.7
			c-12.6,2.1-25.9,13-35.7,21.2c22.9,2.2,44.7,4.1,67.5,7.2C316.8,287.4,366.3,297.4,409.4,309.8L409.4,309.8z"/>
		<path class="st5" d="M146.1,280.5c-0.6-7-3.1-13.7-7.2-19.4c-9.9-13.9-28-19.9-45.1-19.5c-13.9,0.3-26.7,2.8-38.3,9.7
			c-3.7,2.2-8.5,1.6-11.6-1.4c-1.3-1.3-2.7-2.6-4.3-3.7c-6.2-4.4-14.5-4.8-21.8-2.7c-3.6,1-6.7,2.4-9.6,4.2
			c-5,2.9-11.4,1.8-15.1-2.6c-2.2-2.6-4.2-4.8-4.6-5.2c-18.4-15.8-41.7-4.6-55.1,11.8c-6.4,7.8-10.5,16.3-12.3,26.2
			c-0.4,2.3-1.7,22.3-3.9,22.7C-9.2,284.4,70.7,282.9,146.1,280.5L146.1,280.5z"/>
	</g>
	<g style="clip-path:url(#SVGID_00000083795308817055051000000010426054779990968239_);">
		<path class="st6" d="M-116.1,393.2l357.2,14.6c0,0,31.8-7.4,39.7-14.4c10.4-9.2,24.6-19.6,43-32.5c39-27.1,88.5-48.3,88.5-48.3
			c-2.2-0.8-4.4-1.5-6.6-2.3c-137.2-47-372.6-73.4-516.3-58.5L-116.1,393.2L-116.1,393.2z"/>
		<g>
			<path class="st7" d="M197.2,338.2c14.7,2.3,31.9,4.7,46.6,7c26.2,4,52.7,8.1,77.7,17.1c-5.5,2.4-40.2,29.5-57.3,46.2
				c-0.5,0-123.9-4.6-123.9-4.6l-8.4-68.6C131.8,335.3,197.1,338.5,197.2,338.2z"/>
			<g>
				<path class="st8" d="M142.4,332.4c5.1,31,8.6,71.7,8.5,72.4"/>
				<path class="st8" d="M156,333c0.2,2.3,8.6,71.7,8.5,72.4"/>
				<path class="st8" d="M170.7,333.7c0.2,2.3,8.6,71.7,8.5,72.4"/>
				<path class="st9" d="M186,334.4c0.2,2.3,8.6,71.7,8.5,72.4"/>
				<path class="st9" d="M202.2,340.5c0.2,2.3,7.7,66.3,7.7,67"/>
				<path class="st9" d="M215.9,343.8c0.2,2.3,7.6,63.6,7.6,64.4"/>
				<path class="st9" d="M231.6,346.8c0.2,2.3,7.1,59.8,7,60.5"/>
				<path class="st9" d="M249.2,351.4c0.2,2.3,6.1,56,6.1,56.7"/>
				<path class="st9" d="M264.8,352.2c0.2,1.8,3.7,34,5.3,49.1"/>
				<path class="st9" d="M284.5,356.8c0.1,1.3,1.6,17.2,2.8,31.3"/>
				<path class="st9" d="M302.8,360.8c0,0.3,0.6,5.8,1.3,12.9"/>
			</g>
		</g>
		<g>
			<path class="st10" d="M93.9,295c0,0,4.5-30.8,6.5-42.1c38.8,3.3,87.2,7.5,130.2,16.1c-9.6,20-23.8,49.3-33.4,69.3
				c-0.1,0.6-65.4-2.9-65.4-2.9L93.9,295L93.9,295z"/>
			<path class="st11" d="M100.7,257.8c-0.3,0.5,84.9,9.8,125.6,16"/>
			<path class="st11" d="M99.8,268.8c-0.3,0.5,81.2,10.4,121.9,16.7"/>
			<path class="st11" d="M96.5,281.8c-0.3,0.6,78.8,9.2,119.6,14.6"/>
			<path class="st11" d="M94.3,294.8c0.3-0.3,72.1,7.7,115.3,13.1"/>
			<path class="st11" d="M110.2,310.8c20.6,2.1,63,6,94.8,9.6"/>
			<path class="st11" d="M123.7,325.6c21,1.1,50.9,2.6,75.7,4.2"/>
		</g>
		<g>
			<path class="st7" d="M100.4,252.8l-6.2,42.7l-206.5,11.4c-0.8-0.6,1.4-53.9,1.7-55.1c8.6-1.3,19.5-1.6,29.8-2.3
				C-28.1,246.1,32.3,245.9,100.4,252.8L100.4,252.8z"/>
			<g>
				<line class="st12" x1="7.8" y1="247.9" x2="10.4" y2="299.8"/>
				<line class="st12" x1="27.6" y1="248.8" x2="29.7" y2="298.4"/>
				<line class="st12" x1="42" y1="249.1" x2="44.3" y2="297.6"/>
				<line class="st12" x1="56.6" y1="249.8" x2="58.6" y2="296"/>
				<line class="st12" x1="72.2" y1="251.4" x2="73.6" y2="295.5"/>
				<line class="st12" x1="87.1" y1="252.1" x2="87.7" y2="294.7"/>
			</g>
		</g>
		<g>
			<path class="st6" d="M2.2,300.6c5.5,35.4,3.1,98.2,3.1,98.2c0,0.8,134.6,4.4,134.6,4.4s-6.1-48.9-8.2-67.8
				c0,0-24.9-28.8-37.9-40.4C65,295.4,2.2,300.6,2.2,300.6L2.2,300.6z"/>
			<g>
				<line class="st9" x1="5.5" y1="313.6" x2="112.5" y2="316.1"/>
				<line class="st9" x1="7.9" y1="300.9" x2="101.6" y2="303.1"/>
				<line class="st9" x1="6.6" y1="328.4" x2="124.9" y2="329.9"/>
				<line class="st9" x1="5.8" y1="344.2" x2="131.2" y2="346.7"/>
				<line class="st9" x1="7.8" y1="360.2" x2="133.2" y2="362.7"/>
				<line class="st9" x1="7" y1="376.8" x2="132.4" y2="379.3"/>
			</g>
		</g>
		<g>
			<path class="st6" d="M196,338.7l34.6-69.8c0,0,13.9,2.1,31.3,5.3c19.2,3.5,42.7,8.2,53.8,10.9c0.9,0.2,1.8,0.4,2.7,0.6
				c10.8,2.5,29.1,6.6,46,11.4c25.9,7.3,49.9,16.3,49.9,16.3l-92.9,48.9L196,338.7L196,338.7z"/>
			<path class="st13" d="M208.1,341.7c10-19,22.8-48.2,35.8-69.9"/>
			<path class="st13" d="M222,342.6c10-19,21.9-46.6,34.9-68.3"/>
			<path class="st13" d="M233.4,348.8c10-19,24.1-50.5,37.1-72.2"/>
			<path class="st13" d="M250.4,349.6c10-19,22.6-48.1,35.6-69.8"/>
			<path class="st13" d="M267.9,353.1c10-19,22.2-48.1,35.2-69.8"/>
			<path class="st13" d="M282.7,356.4c9.9-18.9,22.8-48.1,35.7-69.8"/>
			<path class="st13" d="M301.8,360.7c9.9-18.8,22.7-47.9,35.5-69.5"/>
			<path class="st13" d="M321.5,361.6c9.4-18,21.6-45.4,33.8-66.6"/>
			<path class="st13" d="M347.4,346.9c7.2-14.8,15.4-32.1,23.7-47"/>
			<path class="st13" d="M375.5,332.1c4.3-8.9,8.9-18,13.5-26.5"/>
		</g>
	</g>
	<g style="clip-path:url(#SVGID_00000083795308817055051000000010426054779990968239_);">
		<g>
			<path class="st14" d="M152.1,224.9l-2,45.1l7.6,0.3c0.2-1.5,0.1-45.5,0.1-45.5"/>
			<path class="st5" d="M182.1,233c0,0,12.6-8.3,7.7-19.1c-3.4-7.5-11.1-9.8-17-9.1c-1.1-4.1-6-15.6-19.3-16.6
				c-8.2-0.6-16.8,2.9-21.9,9.2c-4.7,5.9-3.1,15.3-3.1,15.3c-4.1,6-4.9,18-1.1,23.7c5.5,8.2,16.6,12,26,9.1c0,0,7.5,6.2,18.3,2.1
				C180.7,244.2,182.1,233,182.1,233z"/>
			<g>
				<path class="st15" d="M154.1,199.2c0,0.9-0.8,1.7-1.7,1.7s-1.7-0.8-1.7-1.7s0.8-1.7,1.7-1.7S154.1,198.3,154.1,199.2z"/>
				<path class="st15" d="M141.9,211.1c-0.8,0.4-1.8,0.1-2.3-0.7c-0.4-0.8-0.1-1.8,0.7-2.3c0.8-0.4,1.8-0.1,2.3,0.7
					C143,209.6,142.7,210.6,141.9,211.1z"/>
				<circle class="st15" cx="154.1" cy="215.1" r="1.7"/>
			</g>
		</g>
		<g>
			<path class="st14" d="M195.4,225.7l-2,46.8l7.7,0.4c0.2-1.5,0.1-47.2,0.1-47.2"/>
			<path class="st16" d="M169.7,233c0,0-12.6-8.3-7.7-19.1c3.4-7.5,11.1-9.8,17-9.1c1.1-4.1,6-15.6,19.3-16.6
				c8.2-0.6,16.8,2.9,21.9,9.2c4.7,5.9,3.1,15.3,3.1,15.3c4.1,6,7,16.8,2.4,24.5c-6.8,11.2-18,11.3-27.4,8.4c0,0-7.5,6.2-18.3,2.1
				C171.1,244.2,169.7,233,169.7,233L169.7,233z"/>
			<g>
				<path class="st15" d="M190.1,209.6c0,0.9-0.8,1.7-1.7,1.7s-1.7-0.8-1.7-1.7s0.8-1.7,1.7-1.7S190.1,208.6,190.1,209.6z"/>
				<path class="st15" d="M178.1,221.5c0,0.9-0.8,1.7-1.7,1.7s-1.7-0.8-1.7-1.7s0.8-1.7,1.7-1.7S178.1,220.6,178.1,221.5z"/>
				<circle class="st15" cx="209.8" cy="209.6" r="1.7"/>
				<path class="st15" d="M199.5,197.6c0,0.9-0.8,1.7-1.7,1.7s-1.7-0.8-1.7-1.7s0.8-1.7,1.7-1.7S199.5,196.6,199.5,197.6z"/>
				<path class="st15" d="M199.5,223.3c0,0.9-0.8,1.7-1.7,1.7s-1.7-0.8-1.7-1.7s0.8-1.7,1.7-1.7S199.5,222.4,199.5,223.3z"/>
			</g>
		</g>
	</g>
	<g style="clip-path:url(#SVGID_00000083795308817055051000000010426054779990968239_);">
		<g>
			<g>
				<path class="st3" d="M571.6,380.2c-0.7-9.9,4.6-28.4,9.6-37.4c1-1.9,2.1-3.8,3.4-5.6c3.9-5.4,9.9-9.5,15.8-13.5
					c1.8,11.8-1.8,24.8-9.7,34.7C584.8,366,576.4,372.2,571.6,380.2"/>
				<path class="st12" d="M573.5,377.3c4.5-9.4,8.3-19.6,13.1-28.8c4.3-8.2,8.8-16.2,13.5-24.1"/>
			</g>
			<g>
				<path class="st3" d="M570,358.5l-11-31.4c-1.1-3.2-2.3-6.5-3-9.9c-1.5-7.9-0.4-16.1-2-24c-1.8-8.9-6.8-16.7-11.7-24.3
					c2.1,6.7,3.1,14.7,4.5,21.5c0.6,2.9,1.1,5.8,0.7,8.7c-0.8,5.8-5.3,10.8-5.4,16.7c0,4.2,2.2,8.1,4.4,11.7
					c7.9,13,15.8,26,23.6,38.9"/>
				<path class="st12" d="M542.3,269.4c4.2,9.4,8.5,19.1,8.7,29.4c0.1,5.7-1.2,11.3-0.8,17c0.3,5.9,2.3,11.5,4.4,17
					c4.3,10.8,9.5,21.3,15.5,31.2"/>
			</g>
			<g>
				<path class="st3" d="M572.9,377.1c4.1-4.6,8.3-9.2,13.7-12.2c1-0.6,2.2-1.1,3.3-0.7c5.6,2.1,11.9,2.3,16.7,5.8
					c1.8,1.3,3.5,2.9,4,5c0.3,1-0.2,1.5-0.5,2.5s-1,1.9-1.6,2.8c-0.9,1.2-1.8,2.3-2.7,3.4c-2.1,2.6-2.2,2.7-4.4,5.3
					c0,0-1-5.8-1.3-10c-0.2-2.3-0.5-4.6-1.8-6.5c-5-0.7-10.3,0-15.1,1.5c-1.2,0.4-2.4,0.9-3.5,1.6c-1,0.7-2,1.5-2.8,2.4
					c-1.5,1.8-3.3,3.6-4.2,5.8"/>
				<path class="st17" d="M585.7,365.4c-3.9,2.4-9.4,7-13,11.7c0,0-0.2,6,0,7.4c0.2-0.5,2.2-3.6,2.5-4c2.5-3.6,6-6.1,10.2-7.1
					c4.8-1.2,9.1-1.1,12.8-0.9c-2.8-2.3-7.4-5.2-10.7-6.6C587,365.6,585.8,365.3,585.7,365.4L585.7,365.4z"/>
				<path class="st12" d="M601.4,388.5c1.3-2.5,2.6-5.1,3.2-7.9s0.5-5.9-0.9-8.3c-1.8-3.1-5.3-4.8-8.7-6.1c-2.2-0.8-4.4-1.6-6.7-2.3
					"/>
			</g>
			<g>
				<path class="st3" d="M571.2,389c-2.8-3.4-5.7-6.7-8.6-10.1c-2.2-2.5-4.4-5.2-7.4-6.7c-2.8-1.5-6-1.9-9.2-2.1
					c-1.6-0.1-3.3-0.2-4.8,0.6c-1.7,0.9-2.6,2.7-3.2,4.5c-0.8,2.7-1,5.6-0.5,8.4c-3-3.4-5-8.6-3.9-13s4.5-8.1,8.7-9.8
					c3.8-1.5,13.6-1.4,13.6-1c2.5,1.9,5.7,3.5,7.1,6.3c0.8,1.6,5.8,12.2,7.4,15.1C570.5,381.1,570.9,385.7,571.2,389L571.2,389z"/>
				<path class="st12" d="M570.8,383.4c-2.4-3.6-5-7.1-7.8-10.4c-2.5-2.9-5.2-5.8-8.6-7.5s-7.7-2.2-11.1-0.4c-2.5,1.4-4.9,3-6.3,5.5
					c-1.7,3.2-1.3,9.8,0.7,12.9"/>
			</g>
			<path class="st18" d="M570.9,320.9c0.7,40.9,0.9,83.1,0.3,118.2"/>
			<path class="st17" d="M571.5,330.2c-0.1-2.3-1.4-4.3-2.5-6.3c-5.5-10-7-21.9-6.1-33.4c0.8-11.4,3.9-22.6,6.9-33.6
				c2.1,5.5,4.7,13.2,6.8,18.7c2.5,6.5,0.4,14.1,0.5,21C577.1,308.4,577.3,319.6,571.5,330.2L571.5,330.2z"/>
		</g>
		<g>
			<path class="st18" d="M445.9,278.5c0.7,40.9,0.9,125.4,0.3,160.6"/>
			<path class="st17" d="M445.3,280.8c-7.8-4.9-15.1-17-18-25.8c-2-6-4.3-11.9-6.9-17.7c-0.9-2-1.9-4.1-3.5-5.6
				c-1.8-1.6-4.2-2.3-6.5-3.2c-4.3-1.7-8.3-4.3-11.6-7.6c3.3,14,19.3,23.4,22.5,37.3c0.6,2.7,0.7,5.5,1.2,8.3
				c0.7,3.7,2.3,7.1,4.1,10.4c4.3,7.5,11.4,14.2,18.6,19"/>
			<g>
				<path class="st17" d="M446.5,386.8c4.5-4.3,10.5-10.1,15.8-13.4c3.1-2,7.8-4.6,11.3-3.2c1,2.9,2.8,7.7,3.8,10.5
					c-1.6-0.1-3.3-0.1-5-0.1c-4.3-0.1-8.5,1.6-11.6,4.7c-4.5,4.6-10.1,9.8-13,13.8L446.5,386.8L446.5,386.8z"/>
				<path class="st3" d="M473.6,370.2c3.5,1.2,7.1,3.5,10,5.7c1.2,0.9,2.3,2,3.1,3.2c1.3,2.1,1.4,4.8,1.5,7.3
					c0.1,1.5,0.1,3.1-0.4,4.5c-0.5,1.2-1.3,2.1-2,3.1c-2.4,3.2-4,6.9-4.7,10.7c-3-5.1-3.6-11.5-2.8-17.4c0.1-1.1,0.3-2.1,0.2-3.2
					c-0.1-1.1-0.6-2.1-1.1-3.2C475.9,377.5,474.4,373.5,473.6,370.2L473.6,370.2z"/>
			</g>
			<path class="st10" d="M447.5,295c-4-13.2-9.1-24.9-13.1-38.1c-2.9-9.6-5.9-19.3-6.3-29.3c-0.4-9.3,1.4-18.5,2.5-27.7
				c1.6-13.4,1.6-26.9,1.7-40.4C449.4,203,453.9,248.7,447.5,295L447.5,295z"/>
			<g>
				<path class="st3" d="M462.2,311.2c3.1-3.5,4-3.6,8.2-5.6s9.3-2.5,13.6-0.5c3.2,1.5,5.7,4.3,7.9,7.1c7,8.6,12.9,18.1,17.8,28.1
					C490.7,337.6,472.9,327,462.2,311.2"/>
				<path class="st12" d="M462.4,311.6c7.8-4,15.1-1,20.5,3.2s9.7,9.8,14.4,14.9c3.5,3.8,7.4,7.5,12,9.9"/>
			</g>
			<g>
				<path class="st17" d="M432.2,309c4.2,8.3,6.1,17.7,5.6,27c-0.2,3.4-0.7,6.9-0.7,10.3c-0.1,10.4,5.9,21.6,10,31.1v1.5
					c-12.9-10.9-17.6-28.8-18.2-45.7c-0.1-2.8-0.8-6.7-2.8-8.8c0.7-4.7,1.8-9.3,4.4-13.3C431.1,310.5,431.4,309.8,432.2,309
					L432.2,309z"/>
				<path class="st3" d="M428.6,358.8c-3.4-16.3-4.3-34.6,3.6-49.8c-5.3-1.4-11.7-1.9-18.2-1c1.9,12.4,2,24.6,7.3,36
					C423.7,349.5,426.3,355.2,428.6,358.8L428.6,358.8z"/>
				<path class="st12" d="M423.1,307.5c-2.8,17.1-1.2,36.5,5.4,52.6"/>
			</g>
			<g>
				<path class="st15" d="M469.3,300c2.7-6.9,3.3-8.2,3.4-14.9c0-1.7,0-3.5-0.6-5.1c-0.6-1.6-2.8-3.7-4.5-3.9
					c-1.6-0.1-3.1,0.9-4.1,2.2c-1,1.3-7.4,12.9-8.5,17.5c0.3,1.2,0.3,2.3,0.6,3.5c0.2,1,0.5,2.1,0.9,3.1c0.3,1,0.8,1.9,1.2,2.8
					c1.2,2.3,2.2,4.5,4.4,6C463.5,310.6,468.9,301.1,469.3,300L469.3,300z"/>
				<g>
					<line class="st19" x1="458.1" y1="297.1" x2="468.1" y2="277"/>
					<line class="st19" x1="459.5" y1="304.5" x2="471.3" y2="280.2"/>
					<path class="st19" d="M463,280.3c3.1,2.2,6.1,4.5,8.9,7"/>
					<path class="st19" d="M460.1,285.4c2.6,1.6,5.1,3.4,7.4,5.3c1.3,1.1,2.6,2.2,3.8,3.3"/>
					<path class="st19" d="M458.2,290.4c0.8,0.6,1.6,1.3,2.3,1.9c2.9,2.4,5.8,4.8,8.5,7.4"/>
					<path class="st19" d="M457.7,297c3.1,2.7,5.5,4.7,8.6,7.4"/>
				</g>
			</g>
			<path class="st17" d="M462.2,311.2c-4.4-6.9-6-15.5-4.4-23.5c0.7-3.5,1.9-6.9,2.9-10.4c1.2-4.6,1.8-9.3,1.9-14
				c-2.2,8.6-5.3,16.8-8.3,25.2c-1.5,4.2-3.1,8.3-4.3,12.5c-3.1,11.1-4.6,26.6-2.7,36.5"/>
		</g>
		<g>
			<path class="st17" d="M667.1,247.9c-4.6-6.8-3.8-16.5-3.8-24.9c0-6.1,0.7-12.2,1.3-18.2c2.5-22.5,5-45.1,7.5-67.6
				c6.4,10.6,13.7,21.7,14.2,34.1c0.5,11.4-4.2,22.2-6.5,33.4C676.7,219.9,677.3,235.9,667.1,247.9L667.1,247.9z"/>
			<path class="st10" d="M664.8,242.9c-8.2-6.4-12-15.4-14.5-25.5c-1.6-6.3-3-12.7-4.2-19.2c-1.9-10.2-3.3-20.6-4.7-30.9
				c-1-7.7-2.1-15.4-3.1-23.1c9.3,13.6,18.9,26.6,21.3,43c0.8,5.6,0.8,11.2,1.1,16.8C661.6,217.9,661.3,229.5,664.8,242.9
				L664.8,242.9z"/>
			<g>
				<path class="st15" d="M666,285.7c-0.1-7.4-0.5-16.1,0.3-24.1c0-0.3-0.2-0.6-0.3-0.3c-3-8.4-7.7-16.3-13.8-22.9
					c-0.5-0.5-1-1-1.6-1.4c-0.4-0.2-1.1-0.2-1.8-0.1c-1.7,0.2-3.1,1.5-3.6,3.2c-1.2,3.6-1.3,7.5-0.8,11.2c0.6,4.6,2.2,9.1,3.8,13.4
					c1.7,4.6,6.4,7.1,9.8,10.7C660.8,278.5,664.1,282.3,666,285.7C666.2,286.1,666,285.7,666,285.7L666,285.7z"/>
				<path class="st19" d="M644.5,246.5c3.6-0.7,10.4-3.9,10.4-3.9"/>
				<path class="st19" d="M644.9,253.2c0,0,1.9-0.7,3-1.1c3.5-1.5,7-3,10.6-4.6"/>
				<line class="st19" x1="646.6" y1="259.9" x2="661.9" y2="252.8"/>
				<path class="st19" d="M648.6,265.6c5.1-1.7,11.2-4.1,16.1-6.5"/>
				<path class="st19" d="M653,270.3c3.5-1.5,11.3-4.5,11.3-4.5"/>
				<line class="st19" x1="658.3" y1="274.5" x2="665.1" y2="271.6"/>
				<line class="st19" x1="649.7" y1="238.8" x2="664.7" y2="276"/>
				<line class="st19" x1="645.3" y1="242.1" x2="659" y2="276"/>
			</g>
			<g>
				<path class="st15" d="M667.7,293.9c1-14,12.2-28.8,16.1-33.7c0.8-1,2.1-1.3,3.3-0.9l2.3,0.9c1.3,0.5,2.1,2,1.8,3.4
					c-1.2,5-4.1,16-5.8,20c-3.4,0.2-6.6,1.1-9.8,2.4c-1.4,0.6-2.8,1.3-3.7,2.6c-0.5,0.7-0.7,1.4-1,2.2c-0.4,1.1-0.8,2.3-1.1,3.4
					c-0.1,0.2-0.2,0.5-0.4,0.6c-0.1,0.1-0.3,0.1-0.5,0.1C668.4,294.9,668.1,294.5,667.7,293.9L667.7,293.9z"/>
				<line class="st19" x1="686.1" y1="260.2" x2="672.9" y2="283.7"/>
				<line class="st20" x1="689.7" y1="261.4" x2="680" y2="281.8"/>
				<path class="st20" d="M682.9,262.5c2.9,1.2,4.5,1.8,7.4,2.9"/>
				<path class="st20" d="M680,266.2c2.9,1.2,5.8,2.3,8.7,3.5"/>
				<path class="st20" d="M677.2,270.2c3.4,1.4,10.6,4.2,10.6,4.2"/>
				<path class="st20" d="M675.1,273.8c3.4,1.4,11.5,4.7,11.5,4.7"/>
				<path class="st20" d="M673.3,277.9c3.4,1.4,12,4.5,12,4.5"/>
			</g>
			<g>
				<path class="st17" d="M669.7,332.8c2.6-10.7,6.6-21.9,11.3-31.8l-9.3-15.6c-1.6,4.5-2.5,8.9-3.1,13.7"/>
				<g>
					<path class="st3" d="M673.1,285.4c3.5-0.7,7.4-2.7,11-2.4c3.5,0.3,7.2,1.6,9.5,4.2c5,5.5,3.2,14.1,4.9,21.3
						c0.8,3.5,2.5,6.8,2.6,10.4c0.1,4.6-2.5,8.7-5.1,12.6c0.5-6.7-4.3-13.7-8-19.2c-4.7-6.9-9.1-14.1-13.1-21.5
						c-0.8-1.5-2.1-3.8-3.2-5.2"/>
					<path class="st12" d="M680.8,284c3,3.4,5.5,7.2,7.3,11.3c1.5,3.2,2.5,6.6,3.6,10c1.2,4,2.5,8,3.8,12.1c1.3,4.2,1.5,9.7,0.5,14"
						/>
				</g>
			</g>
			<g>
				<path class="st17" d="M633.9,267.5c2.5,0.8,4.8,2.1,6.8,3.8c2.5,2.2,4.5,5,6.8,7.4c3.1,3.2,7,5.6,11.2,7c2.2,0.7,6-0.2,8,1.1
					c-5.2-10.3-16.1-19.6-26-25.6L633.9,267.5L633.9,267.5z"/>
				<g>
					<path class="st3" d="M640.6,261.3c-2.1,2.2-4.3,4.3-6.7,6.3c-1.3,1.1-2.7,2.2-4,3.5c-2.5,2.5-4.3,5.5-6.1,8.5
						c-3.2,5.2-6.4,10.5-8.1,16.5c-0.8-5.5-2.2-11.3-2-16.9c0.3-8.7,8.7-13.9,15-20C632.8,259.1,636.7,260.5,640.6,261.3
						L640.6,261.3z"/>
					<path class="st12" d="M615.8,296.7c-0.2,2.5,0.6-6.7,1.2-11.5c0.4-3,0.8-5.9,1.7-8.8c1.1-3.4,2.8-6.6,5.1-9.3
						c2.7-3.1,6-5.5,9.3-7.9"/>
				</g>
			</g>
			<g>
				<path class="st3" d="M654,305.2c-3.1,0.7-5.3,6.5-7.8,8.8c-1.5,1.4-3.2,2.5-4.7,3.8c-3.9,3.4-7,7.9-8.6,12.8
					c-1-1-3.2-4.4-3.8-6.9c-0.5-2.1-0.6-4.3-0.2-6.5c0.3-1.6,1-3.2,1.8-4.7c1.8-3.2,4.2-6.1,7.1-8.4
					C643.1,304.3,648.7,305,654,305.2L654,305.2z"/>
				<path class="st17" d="M654,305.2c1.7,1.4,3,3.9,4.1,5.8c0.9,1.7,1.5,3.5,2.1,5.3c2.2,7.1,3.7,14.8,8.7,20.2
					c-4.2-2.7-7.6-5-10.8-8.9c-2.1-2.4-3.8-5.2-6.4-7c-4.9-3.3-8.1-3.3-10.3-2.8c3.1-2,6.5-5.9,9-9.8
					C651.5,306.1,652.6,305.5,654,305.2L654,305.2z"/>
				<path class="st12" d="M632.8,330.5c-1.2-5.5,0.1-11.6,3.6-16.1c1.1-1.4,2.4-2.7,3.6-4c1.7-1.9,3.2-3.9,4.6-6"/>
			</g>
			<g>
				<path class="st17" d="M683,344.3c-4.5,3.1-7.2,7.7-9.6,12.6c-2.4,4.9-3.9,10.2-5.3,15.5c-0.8,2.8,1.2,6.4,1.2,9.3
					c2.3-4.7,5-9.8,7.6-14.4c3.3-5.9,14.5-17.8,19.5-22.4l-7.4,0.6L683,344.3L683,344.3z"/>
				<g>
					<path class="st3" d="M683,344.3c3.9,4.2,6.6,9.4,10,14c3.4,4.6,11.5,12.1,15.7,14.1c0.3-8.7-5.7-23-12.2-28.9
						C691.8,344.1,687.8,345,683,344.3z"/>
					<path class="st12" d="M690.6,344.3c7.2,9.3,15.1,16.8,18.2,28.1"/>
				</g>
			</g>
			<path class="st18" d="M666,242.1c2.5,59.1,3.5,137.9,2.6,197.1"/>
		</g>
	</g>
	<g style="clip-path:url(#SVGID_00000083795308817055051000000010426054779990968239_);">
		<g>
			<g>
				<path class="st5" d="M791.9,399.3c38.4-80,118.2-121.2,189.4-89.7c31.3,13.8,66,47.8,72.2,91.1L791.9,399.3L791.9,399.3z"/>
				<path class="st5" d="M709.2,397.7c26.5-55.2,81.6-83.7,130.8-61.9c21.6,9.5,45.5,33,49.9,62.9L709.2,397.7L709.2,397.7z"/>
			</g>
			<g>
				<line class="st21" x1="757.2" y1="344.5" x2="782.7" y2="398.1"/>
				<line class="st21" x1="772.5" y1="336" x2="786.5" y2="398.1"/>
				<path class="st21" d="M806.5,330.3c0,3.7,4.4,69.3,4.4,69.3"/>
				<path class="st21" d="M725.5,373.4c-0.4,0.1,0.2-0.5,0.5-0.2c10.2,7.3,25.3,17.5,35.5,24.8"/>
				<path class="st21" d="M839.9,335.6c14.7,22,29.5,43.9,44.2,65.9"/>
				<path class="st21" d="M876.7,313.5c2.4,27.5,7.1,60.8,12.3,88"/>
				<path class="st21" d="M833.9,334.5c-3.1,26.6-6.2,53.3-9.3,80"/>
				<path class="st21" d="M909.2,300.6c9.8,34.3,19.6,68.6,29.4,102.8"/>
				<line class="st21" x1="899.8" y1="303.1" x2="929.1" y2="400.6"/>
				<path class="st21" d="M857.7,323c0.3,3.7,0.6,7.5,1,11.2c0.5,6.3,1.1,12.6,1.6,18.9c0.4,4.3,0.7,8.6,1.2,13"/>
				<path class="st21" d="M928.8,299.6c3.4,18,13.7,59.5,14.2,59"/>
				<path class="st21" d="M791.9,331.1c5,11.1,10.3,22.2,15.9,33.1"/>
			</g>
		</g>
		<g>
			<g>
				<path class="st5" d="M-81.9,424.8C-35.2,331.3,61.6,283.2,148.1,320c38,16.2,80.1,55.8,87.7,106.4L-81.9,424.8L-81.9,424.8z"/>
				<path class="st5" d="M-130.8,399.3c38.4-80,118.2-121.2,189.4-89.7c31.3,13.8,66,47.8,72.2,91.1L-130.8,399.3L-130.8,399.3z"/>
			</g>
			<g>
				<path class="st5" d="M216.9,409.7c26.5-55.2,81.6-83.7,130.8-61.9c21.6,9.5,45.5,33,49.9,62.9L216.9,409.7L216.9,409.7z"/>
				<line class="st21" x1="302.9" y1="341.5" x2="307.2" y2="409.2"/>
				<path class="st21" d="M289.3,344.4c7.4,20.6,14.6,46.3,19,67.7"/>
				<path class="st21" d="M255.6,363.5c12.3,18.2,24.6,36.4,36.9,54.6"/>
				<path class="st21" d="M268,353.4c8.1,24.9,16.3,50.1,29.3,72.8"/>
				<line class="st21" x1="243.1" y1="372.9" x2="279.7" y2="413.9"/>
				<path class="st21" d="M326,341.6c-2.1,24.7-5,49.4-8.7,73.9"/>
				<line class="st21" x1="344.1" y1="346.3" x2="321" y2="437"/>
				<path class="st21" d="M332.1,411.6c20.2-16.7,25.8-21.6,44.7-39.7"/>
				<path class="st21" d="M343.7,412.2c18.5-12.6,23.3-15.8,42.2-27.8"/>
			</g>
		</g>
		<g>
			<line class="st21" x1="-28.7" y1="359.4" x2="9.4" y2="427.9"/>
			<path class="st21" d="M16.8,324.9c1.2,4.8,26.6,103,26.6,103"/>
			<path class="st21" d="M53.1,312.4C54.8,352,55,390,53.7,429.5"/>
			<path class="st21" d="M35.1,317.8c5.5,15.2,11.9,30.1,19.3,44.5"/>
			<line class="st21" x1="78" y1="308.7" x2="70.9" y2="425.5"/>
			<path class="st21" d="M106.6,310.9c-7.8,37.8-14.3,75.8-19.7,114"/>
			<line class="st21" x1="97.3" y1="359.4" x2="140.4" y2="317.6"/>
			<path class="st21" d="M158.1,326.5c-8.1,21.9-16.3,43.8-24.4,65.7c-4.9,13.2-8.1,19.9-11.5,33.6"/>
			<path class="st21" d="M146.7,427.9c-1.9,3.6,29.7-58,41.6-81.2"/>
			<line class="st21" x1="148.6" y1="429.5" x2="202.4" y2="359.4"/>
			<line class="st21" x1="188.8" y1="426.3" x2="219.4" y2="383.5"/>
		</g>
	</g>
	<g style="clip-path:url(#SVGID_00000083795308817055051000000010426054779990968239_);">
		<line class="st22" x1="759" y1="259.7" x2="759.2" y2="264"/>
		<line class="st22" x1="761.6" y1="263.8" x2="762.1" y2="261.2"/>
		<path class="st22" d="M755.4,261.3c0.4,1.1,0.8,2.2,1.2,3.3"/>
		<g>
			<path class="st22" d="M792.3,296.5c0,0.9,0.1,1.8,0.3,2.7"/>
			<path class="st22" d="M795.1,296v3.8"/>
		</g>
		<g>
			<path class="st22" d="M721.9,288v4"/>
			<path class="st22" d="M725.8,289c-0.2,1-0.5,2-0.7,3"/>
			<path class="st22" d="M718.3,290.1l0.7,2.5"/>
		</g>
		<g>
			<path class="st22" d="M728.1,328.8v4.2"/>
			<path class="st22" d="M730.8,333.3c0.3-1.1,0.5-2.2,0.8-3.2"/>
			<path class="st22" d="M724.3,329.8c0.2,1.1,0.5,2.2,0.7,3.3"/>
		</g>
		<g>
			<path class="st22" d="M908.5,258.9c0.7,1,1.1,2.2,1.3,3.4"/>
			<path class="st22" d="M912,256.2c0.1,2.1,0.3,4.2,0.4,6.3"/>
			<path class="st22" d="M914.8,259.5v2.7"/>
		</g>
		<g>
			<path class="st22" d="M924.1,274.2c0.1,1.1,0.3,2.2,0.4,3.3"/>
			<path class="st22" d="M926.7,271.2c0.1,1.9,0.3,3.8,0.4,5.7"/>
		</g>
		<g>
			<path class="st22" d="M896.5,290.5c0.2,1.1,0.4,2.2,0.6,3.3"/>
			<path class="st22" d="M899.7,287.2c0.1,2.3,0.2,4.7,0.4,7"/>
			<path class="st22" d="M903.1,290.5v3.3"/>
		</g>
		<g>
			<path class="st22" d="M757.1,307.5v-3"/>
			<path class="st22" d="M760.1,302.5c-0.1,1.3,0.1,2.7,0.4,4"/>
		</g>
		<g>
			<path class="st22" d="M628.8,359.5v4"/>
			<path class="st22" d="M631.8,357.9v5.7"/>
		</g>
		<g>
			<path class="st22" d="M649.1,377.9c0.3,0.9,0.7,1.8,1.1,2.6"/>
			<path class="st22" d="M652.8,380.2v-5.7"/>
			<path class="st22" d="M655.4,380.9c0.1-1.2,0.3-2.4,0.4-3.6"/>
		</g>
		<g>
			<path class="st22" d="M592.8,307.5c-0.1,1.1,0.1,2.3,0.6,3.4"/>
			<path class="st22" d="M597,305.2c0.1,1.9,0.3,3.8,0.4,5.7"/>
			<path class="st22" d="M600.5,310.5c-0.1-1.2,0-2.5,0.3-3.7"/>
		</g>
		<g>
			<path class="st22" d="M636.8,286.5c0.3,1.2,0.5,2.4,0.3,3.7"/>
			<path class="st22" d="M639.5,285.2c0.2,1.7,0.4,3.3,0.7,5"/>
		</g>
		<path class="st22" d="M716.2,257.9c0.3,1.3,0.6,2.7,0.9,4"/>
		<path class="st22" d="M719.8,255.2c-0.2,2-0.1,4,0.1,6"/>
		<g>
			<line class="st22" x1="514.5" y1="299.5" x2="514.5" y2="295.5"/>
			<line class="st22" x1="518.5" y1="299.9" x2="518.5" y2="295.2"/>
		</g>
		<g>
			<line class="st22" x1="527.8" y1="346.5" x2="527.8" y2="342.9"/>
			<line class="st22" x1="531.1" y1="346.2" x2="531.1" y2="339.5"/>
			<line class="st22" x1="535.1" y1="346.9" x2="535.1" y2="343.9"/>
		</g>
		<g>
			<line class="st22" x1="468.5" y1="348.5" x2="468.5" y2="352.2"/>
			<line class="st22" x1="472.1" y1="347.2" x2="472.1" y2="352.2"/>
		</g>
		<g>
			<line class="st22" x1="499.1" y1="374.2" x2="499.1" y2="377.9"/>
			<line class="st22" x1="502.8" y1="370.9" x2="502.8" y2="377.9"/>
			<line class="st22" x1="507.1" y1="374.2" x2="507.1" y2="377.3"/>
		</g>
		<g>
			<line class="st22" x1="387.1" y1="339.9" x2="387.1" y2="343.2"/>
			<line class="st22" x1="391.1" y1="337.2" x2="391.1" y2="343.9"/>
		</g>
		<g>
			<line class="st22" x1="401.5" y1="368.9" x2="401.5" y2="364.9"/>
			<line class="st22" x1="405.5" y1="368.5" x2="405.5" y2="363.2"/>
			<line class="st22" x1="411.5" y1="369.5" x2="411.5" y2="365.9"/>
		</g>
	</g>
</g>
</svg>
