<?xml version="1.0" encoding="UTF-8"?>
<svg xmlns="http://www.w3.org/2000/svg" viewBox="0 0 136.16 189.85">
  <defs>
    <style>
      .cls-1, .cls-2, .cls-3, .cls-4, .cls-5, .cls-6, .cls-7, .cls-8, .cls-9, .cls-10, .cls-11, .cls-12, .cls-13, .cls-14, .cls-15, .cls-16, .cls-17, .cls-18 {
        stroke-width: 0px;
      }

      .cls-1, .cls-6 {
        fill: #993952;
      }

      .cls-1, .cls-19 {
        opacity: .07;
      }

      .cls-1, .cls-19, .cls-20, .cls-21, .cls-22 {
        mix-blend-mode: multiply;
      }

      .cls-2 {
        fill: #ffd347;
      }

      .cls-3 {
        fill: #c13355;
      }

      .cls-4 {
        fill: #f6a821;
      }

      .cls-5 {
        fill: #dd732c;
      }

      .cls-7 {
        fill: #55283a;
      }

      .cls-23 {
        isolation: isolate;
      }

      .cls-20 {
        opacity: .15;
      }

      .cls-8 {
        fill: #441e2e;
      }

      .cls-9 {
        fill: #ff8a64;
      }

      .cls-10 {
        fill: #e84b7c;
      }

      .cls-11 {
        fill: #cc4072;
      }

      .cls-21 {
        opacity: .19;
      }

      .cls-22 {
        opacity: .16;
      }

      .cls-12 {
        fill: #f06361;
      }

      .cls-13 {
        fill: #b7b33d;
      }

      .cls-14 {
        fill: #ef7554;
      }

      .cls-15 {
        fill: #ad561c;
      }

      .cls-16 {
        fill: #ffc74c;
      }

      .cls-17 {
        fill: #cb6a26;
      }

      .cls-18 {
        fill: #3c2842;
      }
    </style>
  </defs>
  <g class="cls-23">
    <g id="OBJECTS">
      <g>
        <path class="cls-8" d="m65.5,144.05l28.46,3.11s35.43,71.57,25.25,129.73c-3.17.83-6.47,1.25-9.59,1.43-1.76.1-3.52.15-5.28.14-.59-6.05-9.1-87.53-43.09-121.89-3.52-11.13,4.26-12.53,4.26-12.53Z"/>
        <path class="cls-6" d="m105.91,278.46l.02-.27.26.02-.02.27-.26-.02Zm.11-1.58c.03-.44.05-.88.07-1.31h.26c-.02.45-.05.89-.08,1.33l-.26-.02Zm.14-2.63c.02-.44.04-.88.05-1.31h.26c-.02.45-.03.89-.05,1.33h-.26Zm.09-2.63c.01-.44.02-.88.03-1.31h.26c0,.44-.02.88-.03,1.32h-.26Zm.05-2.63c0-.44,0-.88,0-1.31h.26c0,.44,0,.88,0,1.32h-.26Zm0-3.94h.26c0,.43.01.87.01,1.31h-.26c0-.44,0-.88-.01-1.31Zm-.06-2.62h.26c.01.43.02.87.03,1.3h-.26c0-.43-.02-.87-.03-1.3Zm-.1-2.63h.26c.02.43.04.86.05,1.3h-.26c-.02-.43-.03-.87-.05-1.3Zm-.14-2.63l.26-.02c.03.44.05.88.08,1.32h-.26c-.02-.42-.05-.86-.07-1.3Zm-.18-2.62l.26-.02c.03.44.06.88.1,1.31l-.26.02c-.03-.44-.06-.88-.1-1.31Zm-.22-2.62l.26-.02c.04.44.08.87.12,1.31l-.26.02c-.04-.44-.08-.87-.12-1.31Zm-.26-2.62l.26-.03c.05.44.09.87.13,1.31l-.26.03c-.04-.44-.09-.87-.13-1.31Zm-.3-2.61l.26-.03c.05.44.1.87.15,1.31l-.26.03c-.05-.44-.1-.87-.15-1.31Zm-.33-2.61l.26-.03c.06.43.12.87.17,1.31l-.26.03c-.06-.44-.11-.87-.17-1.3Zm-.37-2.6l.26-.04c.06.43.13.87.19,1.3l-.26.04c-.06-.43-.13-.87-.19-1.3Zm-.4-2.6l.26-.04c.07.43.14.87.21,1.3l-.26.04c-.07-.43-.14-.87-.21-1.3Zm-.44-2.59l.26-.04c.08.43.15.86.22,1.3l-.26.04c-.07-.43-.15-.86-.22-1.3Zm-.47-2.59l.26-.05c.08.43.16.86.24,1.29l-.26.05c-.08-.43-.16-.86-.24-1.29Zm-.51-2.58l.26-.05c.09.43.17.86.26,1.29l-.26.05c-.08-.43-.17-.86-.26-1.29Zm-.54-2.58l.26-.06c.09.43.18.86.27,1.29l-.26.05c-.09-.43-.18-.86-.27-1.29Zm-.57-2.57l.26-.06c.1.43.19.86.29,1.28l-.26.06c-.1-.43-.19-.86-.29-1.28Zm-.6-2.56l.26-.06c.1.43.2.85.31,1.28l-.26.06c-.1-.43-.2-.85-.31-1.28Zm-.63-2.55l.25-.07c.11.42.22.85.32,1.28l-.26.06c-.11-.43-.21-.85-.32-1.28Zm-.67-2.55l.25-.07c.11.42.23.85.34,1.27l-.25.07c-.11-.43-.22-.85-.34-1.27Zm-.69-2.54l.25-.07c.12.42.24.84.35,1.27l-.25.07c-.12-.42-.23-.85-.35-1.27Zm-.72-2.53l.25-.07c.12.42.24.84.37,1.27l-.25.07c-.12-.42-.24-.84-.37-1.26Zm-.75-2.52l.25-.08c.13.42.25.84.38,1.26l-.25.08c-.13-.42-.25-.84-.38-1.26Zm-.78-2.51l.25-.08c.13.42.26.84.4,1.26l-.25.08c-.13-.42-.26-.84-.39-1.25Zm-.81-2.5l.25-.08c.14.42.27.83.41,1.25l-.25.08c-.13-.42-.27-.84-.41-1.25Zm-.84-2.49l.25-.08c.14.41.28.83.42,1.25l-.25.08c-.14-.42-.28-.83-.42-1.25Zm-.86-2.49l.25-.09c.15.41.29.83.43,1.24l-.25.09c-.14-.42-.29-.83-.43-1.24Zm-.89-2.48l.25-.09c.15.41.3.82.45,1.24l-.25.09c-.15-.41-.3-.83-.45-1.24Zm-.92-2.47l.25-.09c.15.41.31.82.46,1.23l-.25.09c-.15-.41-.31-.82-.46-1.23Zm-.94-2.46l.25-.1c.16.41.32.82.47,1.23l-.25.1c-.16-.41-.32-.82-.47-1.23Zm-.97-2.45l.24-.1c.16.4.33.81.49,1.22l-.25.1c-.16-.41-.32-.82-.49-1.22Zm-.99-2.44l.24-.1c.17.4.33.81.5,1.22l-.24.1c-.17-.41-.33-.81-.5-1.22Zm-1.02-2.43l.24-.1c.17.4.34.8.51,1.21l-.24.1c-.17-.41-.34-.81-.51-1.21Zm-1.04-2.42l.24-.11c.17.4.35.8.53,1.21l-.24.1c-.18-.41-.35-.81-.53-1.21Zm-1.07-2.4l.24-.11c.18.4.36.8.54,1.2l-.24.11c-.18-.41-.36-.81-.54-1.2Zm-1.09-2.39l.24-.11c.18.39.37.79.55,1.2l-.24.11c-.19-.4-.37-.8-.55-1.2Zm-1.12-2.38l.24-.11c.19.39.37.79.56,1.19l-.24.11c-.19-.4-.38-.8-.56-1.19Zm-1.15-2.37l.24-.12c.19.39.38.78.58,1.18l-.24.11c-.19-.4-.39-.8-.58-1.18Zm-1.17-2.36l.24-.12c.19.38.39.78.59,1.18l-.24.12c-.2-.4-.4-.79-.59-1.18Zm-1.2-2.34l.23-.12c.2.38.4.77.6,1.17l-.23.12c-.2-.4-.41-.79-.6-1.17Zm-1.23-2.33l.23-.12c.2.37.41.76.62,1.16l-.23.12c-.21-.4-.42-.79-.62-1.16Zm-1.26-2.31l.23-.13c.2.36.42.75.64,1.16l-.23.13c-.22-.41-.43-.79-.63-1.15Zm-1.3-2.29l.23-.13c.2.35.42.73.66,1.15l-.23.13c-.24-.42-.46-.8-.65-1.14Zm-1.35-2.27l.22-.14s.24.39.69,1.14l-.23.13c-.44-.75-.68-1.13-.68-1.13Z"/>
        <polygon class="cls-9" points="102.98 106.17 109.6 121.69 93.89 128.42 87.89 108.05 102.98 106.17"/>
        <path class="cls-6" d="m22.69,95.9c.2-.27.42-.56.43-.89.02-.36-.2-.69-.41-.98-4.44-6.48-6.58-14.26-3.87-21.85,2.09-5.86,6.56-10.77,12.05-13.7,4-2.14,8.71-3.44,11.52-7,2.19-2.78,3.59-7.51,4-11,.52-4.46-.12-8.31,1.79-12.52.69-1.52,1.06-3.22,1.54-4.86,13.9-3.82,28.51-5.84,42.43-2.02.72.93,1.37,1.97,1.91,3.16,2.41,5.27,1.63,11.35,1.75,17.14.03,1.4.12,2.85.76,4.1.63,1.23,1.74,2.14,2.75,3.1,6.41,6.09,11.11,15.34,8.29,24.23-.19.6-.42,1.23-.31,1.85.1.6.48,1.1.82,1.6,3.36,4.88,4.41,12.48,2.28,17.99-2.37,6.15-8.06,10.91-14.54,12.15l-56.56,23.28c-6.5.57-14.02.77-18.4-4.07-3.23-3.56-3.66-8.79-3.73-13.59-.09-6.14,1.76-11.17,5.48-16.1Z"/>
        <path class="cls-16" d="m48.23,120.96c-.08-.03-.15-.05-.24-.08-7.23-1.97-14.02-5.34-20.17-9.62,4.08-9.12,11.46-27.71,18.96-31.28,4.73-2.26,17.34-5.21,17.34-5.21l10.44-.51s15.48.96,19.21,7.78c3.73,6.83,12.43,27.4,12.43,27.4,0,0-7.39,4.6-15.3,6.36,3.08,7.76,7.58,28.04,7.58,28.04l-49.03,2.36,4.56-41.16-5.79,15.91Z"/>
        <path class="cls-7" d="m82.91,75.49s13.86,28.99,9.63,55.95c-2.25,14.32-14.89,24.45-24.73,24.34-8.69-.1-18.11-11.73-18.11-11.73l6.48-32.63s2.75-23.49-3.82-33.43c2.48-1.15,5.01-1.41,5.01-1.41,0,0,4.94,6.86,4.64,24.39,9.06-.23,21.75-1.06,21.75-1.06l-5.19-25.18,4.35.75Z"/>
        <path class="cls-8" d="m72.24,104.93h4.07c5,0,9.05,4.06,9.05,9.05v14.95h-22.17v-14.95c0-5,4.06-9.05,9.05-9.05Z" transform="translate(154.76 229.68) rotate(176.91)"/>
        <path class="cls-7" d="m49.7,144.05c5.04,63.87-26.46,120.56-26.46,120.56,0,0,2.88,2.07,13.56,7.18,37.08-33.07,43.86-123.95,43.86-123.95l-30.96-3.78Z"/>
        <path class="cls-9" d="m26.07,126.86c1.61-5.57,2.92-11.16,5.22-16.53l15.67,8.67c-.78,3.82-2.32,7.39-3.05,11.16.93.07,1.86.12,2.8.14,1.53.03,3.12.08,4.69.08.49,1.13,1.53,2.02,3.12,2.07,3.65.11,7.19.39,10.82-.2,1.25-.2,2.13-1.28,2.46-2.47.95.04,1.91.09,2.86.14.32.02,2.87-.07,2.94.24.23,1.04.35,2.05.52,3.09.06.38.65,2.69.48,2.87-1.64,1.7-3.95,2.57-6.2,3.31-13.64,4.44-27.78,6.93-41.96,4.74-.59-.09-1.23-.23-1.57-.71-.18-.25-.24-.57-.29-.87-.89-5.25.04-10.65,1.5-15.71Z"/>
        <g>
          <path class="cls-13" d="m118.41,92.75c-.07-.75-.63-1.4-1.32-1.73s-1.47-.37-2.22-.27c-.06.43.29.8.64,1.05.81.58,1.8.89,2.8.89"/>
          <path class="cls-13" d="m118.64,91.75c.2.19.52.13.78.04.89-.32,1.73-.86,2.26-1.65s.74-1.82.41-2.71c-.92.32-1.8.83-2.45,1.57s-1.03,1.73-.92,2.71"/>
          <path class="cls-13" d="m110.61,125.35c-1.98-.58-3.83-1.58-5.31-2.87-2.26-1.99-2.35-6.16-1.57-8.83.72-2.47,2.35-4.6,4.17-6.38.74-.72,1.51-1.43,2.12-2.26.58-.79.75-1.58,1.07-2.47.95-2.59,1.42-6.59,4.34-7.69,2.18-.82,4.7.14,5.81,2.17.45.83.6,1.78.65,2.73.1,2.08-.48,4.36-.1,6.41.4,2.19,1.46,4.29,1.88,6.51.53,2.77.79,6.27-.7,8.79-2.59,4.4-7.79,5.25-12.35,3.9Z"/>
          <path class="cls-18" d="m118.14,87.03c1.01,3.55.88,7.25-.37,10.72-.12.32-.6.1-.48-.22,1.19-3.33,1.32-6.91.35-10.31-.09-.33.41-.52.5-.19h0Z"/>
          <path class="cls-18" d="m119.82,98.02c-1.76.51-3.53-.16-4.44-1.77-.17-.3.26-.61.43-.31.79,1.39,2.27,2.03,3.82,1.58.33-.1.52.4.19.5h0Z"/>
        </g>
        <g>
          <path class="cls-13" d="m81.45,94.62c.07-.75.63-1.4,1.32-1.73s1.47-.37,2.22-.27c.06.43-.29.8-.64,1.05-.81.58-1.8.89-2.8.89"/>
          <path class="cls-13" d="m81.23,93.61c-.2.19-.52.13-.78.04-.89-.32-1.73-.86-2.26-1.65s-.74-1.82-.41-2.71c.92.32,1.8.83,2.45,1.57s1.03,1.73.92,2.71"/>
          <path class="cls-13" d="m89.25,127.21c1.98-.58,3.83-1.58,5.31-2.87,2.26-1.99,2.35-6.16,1.57-8.83-.72-2.47-2.35-4.6-4.17-6.38-.74-.72-1.51-1.43-2.12-2.26s-.75-1.58-1.07-2.47c-.95-2.59-1.42-6.59-4.34-7.69-2.18-.82-4.7.14-5.81,2.17-.45.83-.6,1.78-.65,2.73-.1,2.08.48,4.36.1,6.41-.4,2.19-1.46,4.29-1.88,6.51-.53,2.77-.79,6.27.7,8.79,2.59,4.4,7.79,5.25,12.35,3.9Z"/>
          <path class="cls-18" d="m81.73,88.9c-1.01,3.55-.88,7.25.37,10.72.12.32.6.1.48-.22-1.19-3.33-1.32-6.91-.35-10.31.09-.33-.41-.52-.5-.19h0Z"/>
          <path class="cls-18" d="m80.04,99.88c1.76.51,3.53-.16,4.44-1.77.17-.3-.26-.61-.43-.31-.79,1.39-2.27,2.03-3.82,1.58-.33-.1-.52.4-.19.5h0Z"/>
        </g>
        <path class="cls-6" d="m35.1,245.53s.2-.41.56-1.2l.3.14c-.36.79-.57,1.2-.57,1.2l-.3-.14Zm1.11-2.4c.16-.36.34-.76.53-1.21l.3.13c-.19.44-.37.84-.53,1.21l-.3-.13Zm1.06-2.41c.16-.38.34-.79.52-1.21l.3.13c-.18.42-.35.83-.52,1.21l-.3-.13Zm1.02-2.43c.16-.39.33-.8.5-1.22l.3.12c-.17.42-.34.83-.5,1.22l-.3-.13Zm.99-2.44c.16-.4.32-.8.49-1.22l.31.12c-.16.42-.33.83-.49,1.23l-.31-.12Zm.96-2.45c.15-.4.31-.81.47-1.23l.31.12c-.16.42-.32.83-.47,1.23l-.31-.12Zm.93-2.46c.15-.4.3-.82.46-1.23l.31.11c-.15.42-.31.83-.46,1.24l-.31-.12Zm.91-2.47c.15-.41.3-.82.44-1.24l.31.11c-.15.42-.3.83-.44,1.24l-.31-.11Zm.88-2.48c.14-.41.29-.82.43-1.24l.31.11c-.14.42-.29.84-.43,1.25l-.31-.11Zm.86-2.49c.14-.41.28-.83.42-1.25l.31.1c-.14.42-.28.84-.42,1.25l-.31-.11Zm.83-2.5c.13-.41.27-.83.41-1.25l.31.1c-.14.42-.27.84-.41,1.25l-.31-.1Zm.81-2.51c.13-.42.26-.83.39-1.26l.31.1c-.13.42-.26.84-.39,1.26l-.31-.1Zm.78-2.51c.13-.42.25-.84.38-1.26l.31.09c-.13.42-.25.84-.38,1.26l-.31-.1Zm.75-2.52c.12-.42.25-.84.37-1.26l.32.09c-.12.42-.24.85-.37,1.26l-.32-.09Zm.73-2.53c.12-.42.24-.84.35-1.27l.32.09c-.12.43-.24.85-.35,1.27l-.32-.09Zm.7-2.54c.11-.42.23-.84.34-1.27l.32.08c-.11.43-.23.85-.34,1.27l-.32-.09Zm.67-2.54c.11-.42.22-.85.33-1.27l.32.08c-.11.43-.22.85-.33,1.28l-.32-.08Zm.65-2.55c.1-.42.21-.85.31-1.28l.32.08c-.1.43-.21.86-.31,1.28l-.32-.08Zm.62-2.56c.1-.43.2-.85.3-1.28l.32.07c-.1.43-.2.86-.3,1.28l-.32-.08Zm.59-2.56c.1-.43.19-.85.29-1.28l.32.07c-.09.43-.19.86-.29,1.29l-.32-.07Zm.56-2.57c.09-.43.18-.86.27-1.29l.32.07c-.09.43-.18.86-.27,1.29l-.32-.07Zm.53-2.58c.09-.43.17-.86.26-1.29l.32.06c-.08.43-.17.86-.26,1.29l-.32-.06Zm.5-2.58c.08-.43.16-.86.24-1.29l.32.06c-.08.43-.16.86-.24,1.3l-.32-.06Zm.47-2.59c.08-.43.15-.86.23-1.3l.32.06c-.07.43-.15.87-.23,1.3l-.32-.06Zm.44-2.59c.07-.43.14-.86.21-1.3l.33.05c-.07.43-.14.87-.21,1.3l-.33-.05Zm.41-2.6c.07-.43.13-.87.19-1.3l.33.05c-.06.44-.13.87-.19,1.3l-.33-.05Zm.38-2.6c.06-.43.12-.87.18-1.3l.33.04c-.06.44-.12.87-.18,1.31l-.33-.04Zm.34-2.61c.05-.43.11-.87.16-1.31l.33.04c-.05.44-.11.87-.16,1.31l-.33-.04Zm.31-2.61c.05-.43.1-.87.14-1.31l.33.03c-.05.44-.09.87-.14,1.31l-.33-.04Zm.27-2.62c.04-.43.08-.87.12-1.31l.33.03c-.04.44-.08.88-.12,1.31l-.33-.03Zm.24-2.62c.04-.44.07-.87.11-1.31l.33.03c-.03.44-.07.88-.11,1.31l-.33-.03Zm.2-2.62c.03-.44.06-.87.09-1.31l.33.02c-.03.44-.06.88-.09,1.31l-.33-.02Zm.16-2.62c.02-.44.05-.88.07-1.31l.33.02c-.02.44-.04.88-.07,1.32l-.33-.02Zm.13-2.63c.02-.44.03-.88.05-1.31h.33c-.01.45-.03.89-.05,1.33h-.33Zm.09-2.62c.01-.44.02-.87.03-1.31h.33c0,.44-.02.88-.03,1.32h-.33Zm.04-2.62c0-.44,0-.88,0-1.31h.33c0,.44,0,.88,0,1.32h-.33Zm-.01-3.94h.33c0,.43.01.87.01,1.31h-.33c0-.44,0-.87-.01-1.31Zm-.06-2.63h.33c.01.43.03.87.04,1.31h-.33c-.01-.43-.02-.87-.04-1.31Zm-.11-2.63l.33-.02c.02.44.04.88.06,1.32h-.33c-.02-.42-.04-.86-.06-1.3Zm-.15-2.62l.33-.02c.03.44.06.88.08,1.31l-.33.02c-.03-.44-.05-.87-.08-1.31Zm-.2-2.62l.33-.03c.04.44.07.88.11,1.31l-.33.03c-.03-.44-.07-.87-.11-1.31Zm-.17-1.89l.33-.03.06.58-.33.03-.06-.58Z"/>
        <g>
          <path class="cls-3" d="m92.5,105.93c2.09-.97,4.17-.91,6.21.14.21.11.43.23.66.2.22-.02.41-.17.58-.31,2.72-2.08,6.87-2.84,8.95.42,1.42,2.23,2.35,5.02,2.48,7.66.11,2.31-.81,4.66-2.5,6.25-2.11,1.99-4.78,2.25-7.47,2.66-2.85.43-5.86.04-8.46-1.23-2.9-1.41-3.37-5.34-3.59-8.27-.21-2.76.35-6.22,3.15-7.52Z"/>
          <path class="cls-13" d="m98.95,104.27c.81.04,1.58-.38,2.17-.93.92-.84,1.53-2.01,1.7-3.24.17-1.23-.11-2.52-.77-3.58-.87.33-1.59.99-2.09,1.77s-.81,1.68-1,2.59c-.24,1.15-.29,2.39.22,3.45"/>
          <path class="cls-13" d="m98,101.52c-.68-.81-1.71-1.32-2.77-1.36-1.32-.06-2.57.57-3.73,1.2.44.71,1.3,1.04,2.13,1.17,1.24.19,2.54.02,3.69-.47.23-.1.46-.21.62-.4"/>
          <path class="cls-18" d="m95.88,96.74c2.31,3.71,3.76,7.83,4.25,12.17.04.37-.53.45-.57.08-.48-4.23-1.88-8.28-4.13-11.9-.19-.31.25-.67.45-.36h0Z"/>
          <path class="cls-18" d="m104.02,107.52c-2.68,2.24-6.73,2.71-9.17-.14-.24-.28.21-.64.45-.36,2.24,2.62,5.94,2.09,8.37.05.28-.24.64.21.36.45h0Z"/>
        </g>
        <g>
          <path class="cls-3" d="m81.79,105.82c-2.09-.97-4.17-.91-6.21.14-.21.11-.43.23-.66.2-.22-.02-.41-.17-.58-.31-2.72-2.08-6.87-2.84-8.95.42-1.42,2.23-2.35,5.02-2.48,7.66-.11,2.31.81,4.66,2.5,6.25,2.11,1.99,4.78,2.25,7.47,2.66,2.85.43,5.86.04,8.46-1.23,2.9-1.41,3.37-5.34,3.59-8.27.21-2.76-.35-6.22-3.15-7.52Z"/>
          <path class="cls-13" d="m75.34,104.16c-.81.04-1.58-.38-2.17-.93-.92-.84-1.53-2.01-1.7-3.24s.11-2.52.77-3.58c.87.33,1.59.99,2.09,1.77s.81,1.68,1,2.59c.24,1.15.29,2.39-.22,3.45"/>
          <path class="cls-13" d="m76.29,101.42c.68-.81,1.71-1.32,2.77-1.36,1.32-.06,2.57.57,3.73,1.2-.44.71-1.3,1.04-2.13,1.17-1.24.19-2.54.02-3.69-.47-.23-.1-.46-.21-.62-.4"/>
          <path class="cls-18" d="m78.41,96.63c-2.31,3.71-3.76,7.83-4.25,12.17-.04.37.53.45.57.08.48-4.23,1.88-8.28,4.13-11.9.19-.31-.25-.67-.45-.36h0Z"/>
          <path class="cls-18" d="m70.27,107.42c2.68,2.24,6.73,2.71,9.17-.14.24-.28-.21-.64-.45-.36-2.24,2.62-5.94,2.09-8.37.05-.28-.24-.64.21-.36.45h0Z"/>
        </g>
        <path class="cls-17" d="m126.22,120.43c-.3,5.06-2.42,32.33-13.69,34.04-2.1.32-4.38.54-6.74.68v.06s-18.91,1.15-31.34-.74c-11.27-1.71-13.4-28.98-13.69-34.04h65.47Z"/>
        <g>
          <path class="cls-5" d="m67.52,120.43c1.02,11.72,4.12,23.14,8.22,34.22-.44-.06-.87-.12-1.29-.18-.32-.05-.64-.12-.94-.21-3.99-10.96-6.98-22.25-7.97-33.83h1.98Z"/>
          <path class="cls-5" d="m82.91,155.3c-.7-.04-1.39-.08-2.08-.13-2.92-11.39-4.86-23-5.8-34.73h1.98c.95,11.78,2.93,23.43,5.9,34.86Z"/>
          <path class="cls-5" d="m89.45,155.53c-.66-.01-1.33-.02-2-.04-1.91-11.59-3.05-23.3-3.41-35.05h1.97c.36,11.77,1.51,23.48,3.44,35.09Z"/>
          <path class="cls-5" d="m94.65,155.55c-.64,0-1.3,0-1.97,0,0-11.71,0-23.41,0-35.12h1.97c0,11.7,0,23.41,0,35.11Z"/>
          <path class="cls-5" d="m99.54,155.46c-.63.02-1.3.03-2.01.05,1.93-11.6,3.08-23.31,3.44-35.07h1.97c-.36,11.74-1.5,23.44-3.41,35.03Z"/>
          <path class="cls-5" d="m109.97,120.43h1.98c-.94,11.71-2.88,23.31-5.79,34.69-.12,0-.24.02-.36.03v.06s-.63.04-1.72.09c2.97-11.43,4.95-23.09,5.9-34.86Z"/>
          <path class="cls-5" d="m113.47,154.25c-.31.09-.62.16-.94.21-.42.06-.85.12-1.29.18,4.1-11.07,7.2-22.49,8.22-34.21h1.98c-.99,11.58-3.98,22.87-7.97,33.83Z"/>
        </g>
        <path class="cls-9" d="m115.73,145.48c5.72,1.71,9.34-2.53,8.68-8.08-.38-3.19-2.61-6.09-5.6-7.27-.19.86.23,1.72.64,2.49.89,1.7,1.78,3.4,2.67,5.09-1.97-1.54-4.26-2.65-6.68-3.25-.48-.12-.98-.22-1.46-.09s-.91.53-.91,1.03c0,.64.68,1.03,1.25,1.3,1.6.73,3.2,1.47,4.8,2.2-1.54-.35-3.07-.71-4.61-1.06-.78-.18-1.81-.25-2.17.46,1.76,1.83,4.45,2.34,6.96,2.76-1.7-.23-3.46-.06-5.08.49-.19.07-.4.15-.49.34-.17.37.28.72.66.86,1.49.57,3.13.74,4.7.51-1.32.41-2.8.95-3.36,2.22Z"/>
        <path class="cls-9" d="m70.05,130.07c1.54-.33,2.76-1.49,3.74-2.72s1.81-2.6,2.98-3.65c.23-.21.62-.39.82-.15.11.14.09.34.05.51-.31,1.48-.92,2.9-1.79,4.14,3.04-.24,6.27-.3,8.92,1.19-.07.36-.51.49-.87.55-1.44.22-2.92.26-4.37.12,1.18.45,2.44.68,3.64,1.08s2.4.99,3.18,1.99c-.9.7-2.19.42-3.29.11-1.73-.49-3.45-.98-5.18-1.47,1.34.65,2.77,1.1,4.07,1.82s2.51,1.76,2.98,3.17c-.5.29-1.12.07-1.65-.16-2.12-.93-4.2-1.94-6.24-3.03,2.12,1.32,4.35,2.76,5.43,5.01.14.3.25.67.05.93-.3.38-.89.13-1.29-.15-1.43-1-2.85-1.99-4.28-2.99-.22-.16-.46-.32-.73-.34-.34-.03-.66.16-.96.33-1.41.82-3.63,2.25-5.24,2.47"/>
        <g class="cls-19">
          <path class="cls-6" d="m74.62,70.99c-3.46.6-7.02.64-10.5.13v-6.41c3.42.86,6.97,1.2,10.5,1.01v5.28Z"/>
        </g>
        <rect class="cls-15" x="57.98" y="115.13" width="70" height="7.55" rx="3.08" ry="3.08" transform="translate(185.95 237.81) rotate(180)"/>
        <path class="cls-9" d="m68.41,61.93h1.93c2.36,0,4.29,1.92,4.29,4.29v14.45h-10.5v-14.45c0-2.36,1.92-4.29,4.29-4.29Z" transform="translate(138.74 142.6) rotate(180)"/>
        <g class="cls-21">
          <path class="cls-12" d="m74.62,70.68c-2.73.42-5.49.62-8.25.55-.75-.02-1.5-.07-2.25-.13v-9.18h10.5v8.75Z"/>
        </g>
        <path class="cls-2" d="m92.45,19.02c-1.57-5.25-6.97-13.7-14.6-12.38-1.57.27-3,1-4.55,1.35-4.5,1.03-9.37-1.19-13.87-.13-3.38.8-5.9,3.36-7.21,6.18s-1.58,5.91-1.84,8.93"/>
        <path class="cls-13" d="m58.4,17.38c.85-.4,1.49-1.15,2.01-1.93,2.13-3.23,2.57-7.51,1.13-11.11-1.66,1.48-3,3.36-3.67,5.48-.67,2.12-.63,4.5.29,6.52"/>
        <path class="cls-13" d="m51.48,16.59c.37-2.83-.28-5.79-1.8-8.21-.37-.58-.79-1.14-1.31-1.59-.91-.78-2.06-1.2-3.19-1.61-.11.62-.22,1.24-.33,1.87-.14.8-.28,1.61-.3,2.42-.05,3.32,2.33,6.52,5.52,7.43"/>
        <path class="cls-13" d="m44.02,21.16c-.27-2.1-1.81-3.89-3.67-4.92s-4.01-1.37-6.13-1.51c-.05,2.23.88,4.47,2.51,6s3.91,2.33,6.14,2.15"/>
        <path class="cls-11" d="m56.75,13.14c-.05-.89-.17-1.77-.34-2.64-.17-.83-.4-1.69-.96-2.33s-1.51-1.01-2.28-.65c-.64.3-.99,1-1.2,1.68-.48,1.6-.43,3.3-.37,4.97-1.21-1.77-2.57-3.64-4.61-4.33-.63-.21-1.43-.25-1.85.26-.32.39-.29.95-.2,1.44.24,1.39.83,2.72,1.68,3.84-.97-.95-2.04-1.79-3.21-2.49-.49-.3-1.08-.58-1.61-.38-.78.29-.89,1.35-.75,2.18.27,1.56.98,3.04,2.02,4.23"/>
        <path class="cls-10" d="m56.96,19.41c1.69-2.35,2.44-5.36,2.06-8.22-.09-.7-.4-1.54-1.1-1.61-.28-.03-.55.08-.8.2-1.13.57-2.02,1.57-2.45,2.76-.54-1.32-1.41-2.6-2.73-3.15s-3.11-.08-3.62,1.25c-.42,1.11.13,2.33.68,3.39-.72-1.4-2.95-2.3-4.41-1.68-1.81.77-.54,3.42.03,4.75-.99-.4-1.48-1.54-2.6-1.69-2.24-.3-3.16,2.21-2.05,3.81.99,1.41,2.83,2.52,4.43,3.11,1.83.68,3.81.88,5.77.85"/>
        <ellipse class="cls-4" cx="69.73" cy="34.11" rx="48.48" ry="19.06" transform="translate(-2.43 5.5) rotate(-4.44)"/>
        <ellipse class="cls-9" cx="93.89" cy="48.24" rx="6.12" ry="4.5" transform="translate(1.15 98.65) rotate(-55.72)"/>
        <path class="cls-14" d="m96.48,44.96c-2.82.95-3.84,3.83-4.38,6.51-.08.42-.72.24-.63-.17.59-2.93,1.78-5.93,4.84-6.97.4-.14.57.5.17.63h0Z"/>
        <path class="cls-14" d="m95.25,49.34c-.61-.61-1.4-.91-2.26-.87-.42.02-.42-.64,0-.66,1.03-.05,2,.33,2.73,1.06.3.3-.17.77-.47.47h0Z"/>
        <path class="cls-9" d="m68.07,19.44c4.45-.35,8.98-.34,13.43.04,1.81.15,3.61.54,5.41.92,3.49,3.58,5.64,8.48,5.64,13.87v16.43c0,9.46-7.67,17.13-17.13,17.13h-6.86c-10.99,0-19.9-8.91-19.9-19.9v-13.66c0-4.38,1.42-8.43,3.82-11.72,5.11-1.51,10.32-2.7,15.59-3.11Z"/>
        <path class="cls-6" d="m79.12,52.27c-.01.12-.02.25-.05.37-.46,2.7-2.82,4.54-5.28,4.12-2.45-.42-4.07-2.95-3.6-5.64.02-.12.05-.24.08-.36l8.85,1.51Z"/>
        <path class="cls-10" d="m73.8,56.76c-1.29-.22-2.35-1.03-2.99-2.14.93-.84,2.21-1.26,3.54-1.03s2.4,1.05,2.99,2.15c-.98.83-2.24,1.24-3.54,1.02Z"/>
        <g>
          <ellipse class="cls-6" cx="83.99" cy="46.74" rx="2.57" ry="1.7" transform="translate(25.47 123) rotate(-81.6)"/>
          <ellipse class="cls-6" cx="70.6" cy="45.33" rx="1.7" ry="2.57"/>
          <path class="cls-6" d="m88.58,40.07c-1.21-1.91-3.28-2.92-5.53-2.78-.85.06-.84-1.26,0-1.32,2.71-.18,5.22,1.15,6.66,3.43.45.72-.68,1.38-1.14.66h0Z"/>
          <path class="cls-6" d="m65.77,38.2c1.44-2.28,3.96-3.61,6.66-3.43.84.05.85,1.37,0,1.32-2.25-.15-4.32.87-5.53,2.78-.45.71-1.59.06-1.14-.66h0Z"/>
          <path class="cls-6" d="m79.34,36.4c-.57,1.82-1.07,3.67-1.5,5.53-.26,1.13-.51,2.28-.65,3.43s1.46.65,1.95.96c1.97,1.27.78,3.41-.61,4.59-.32.27-.79-.19-.47-.47.73-.62,1.39-1.25,1.48-2.28.13-1.47-1.65-1.22-2.42-1.46-.54-.17-.59-.9-.6-1.35-.03-1.36.52-2.91.82-4.23.38-1.66.85-3.29,1.35-4.91.13-.4.76-.23.63.17h0Z"/>
        </g>
        <path class="cls-6" d="m88.32,21.38c1.25,1.25,2.35,2.64,3.15,4.22,2.01,3.98,1.97,8.62,2.63,13.04-1.98-.61-3.62-2.13-5.07-3.65-1.19-1.25-2.34-2.54-3.45-3.86-1.59-1.91-3.11-3.94-4.04-6.25-.63-1.58-.96-3.31-.84-4.99,2.62.2,5.19.62,7.62,1.49Z"/>
        <path class="cls-6" d="m47.4,32.23s0-.06.01-.08c.08-.55.19-1.1.35-1.63.85-2.98,2.95-5.1,3.93-7.93,7.93-2.07,16.07-3.5,24.15-3.55-.61,1.94-1.41,3.82-2.38,5.6-.83,1.51-1.81,2.98-3.16,4.06-2.67,2.11-6.32,2.36-9.72,2.52-.24,6.39-5.68,12.18-12.04,12.81-.31.03-.65.04-.95-.04.25-3.81-.71-7.95-.18-11.75Z"/>
        <ellipse class="cls-9" cx="46.64" cy="48.16" rx="5.14" ry="6.99" transform="translate(-19.02 34.64) rotate(-34.28)"/>
        <ellipse class="cls-1" cx="84.19" cy="53.79" rx="3.54" ry="2.55"/>
        <ellipse class="cls-1" cx="65.47" cy="51.49" rx="3.54" ry="2.55"/>
        <g>
          <path class="cls-14" d="m49.4,53.12c.42-3.71-1.57-7.02-5.11-8.28-.4-.14-.23-.78.17-.63,3.8,1.35,6.05,4.9,5.59,8.91-.05.42-.71.42-.66,0h0Z"/>
          <path class="cls-14" d="m49.29,50.57c-.98-1.07-2.4-1.25-3.77-1.38-.42-.04-.42-.7,0-.66,1.55.15,3.13.37,4.23,1.58.29.31-.18.78-.47.47h0Z"/>
        </g>
        <path class="cls-9" d="m26.07,126.86c1.61-5.57,2.92-11.16,5.22-16.53l15.67,8.67c-.78,3.82-2.32,7.39-3.05,11.16.93.07,1.86.12,2.8.14,5.3.12,10.59-.03,15.89-.13,2.7-.05,5.37-.39,8.05-.26.12,0,.57,0,1.09,0,.49,2.41,1.11,4.78,1.73,7.16-1.49,1.09-3.3,1.76-5.08,2.34-13.64,4.44-27.78,6.93-41.96,4.74-.59-.09-1.23-.23-1.57-.71-.18-.25-.24-.57-.29-.87-.89-5.25.04-10.65,1.5-15.71Z"/>
        <g class="cls-22">
          <path class="cls-6" d="m71.26,36.68c-7.57.29-17.28,1.09-24.72,2.49,0,0,.2-8.4.56-9.9,14.16-2.38,34.41-1.63,48.53.97.31,1.39.22,7.93.22,7.93-7.03-.84-17.49-1.75-24.58-1.48Z"/>
        </g>
        <path class="cls-4" d="m106.49,35.47s-26.08-10.93-72.35,2.29c-1.1-6.72,3.51-12.62,3.51-12.62,0,0,38.79-17.87,64.9-1.96,26.11,15.91,3.94,12.28,3.94,12.28Z"/>
        <g class="cls-20">
          <path class="cls-12" d="m28.34,118.8c.84-2.86,1.76-5.69,2.94-8.46l15.67,8.67c-.36,1.77-.89,3.49-1.42,5.19-3.94-.73-7.77-2.07-11.56-3.41-1.88-.66-3.75-1.32-5.63-1.99Z"/>
        </g>
        <path class="cls-4" d="m50.73,114.57l-1.48,5.76c-.31,1.21-1.66,1.83-2.78,1.27l-18.39-9.18c-.93-.47-1.34-1.58-.93-2.53l2.54-5.88c.46-1.06,1.72-1.5,2.73-.95l17.33,9.3c.8.43,1.2,1.34.97,2.22Z"/>
      </g>
    </g>
  </g>
</svg>