<?xml version="1.0" encoding="UTF-8"?>
<svg id="Capa_1" data-name="Capa 1" xmlns="http://www.w3.org/2000/svg" viewBox="0 0 174 174">
  <defs>
    <style>
      .cls-1 {
        fill: #ebab25;
      }

      .cls-1, .cls-2 {
        stroke-width: 0px;
      }

      .cls-2 {
        fill: #755512;
      }
    </style>
  </defs>
  <circle class="cls-2" cx="87.5" cy="89.5" r="79.5"/>
  <circle class="cls-1" cx="87.5" cy="83.5" r="79.5"/>
  <g>
    <path class="cls-2" d="m147.05,94.33l-5.58-4.05c-.63-9.61-4.21-17.84-10.67-24.5-2.76-2.82-5.87-5.26-9.26-7.27,1.31-5.95.89-12.05-1.22-17.37-2.39-6.01-6.77-10.62-12.35-12.99-6.19-2.63-13.17-2.3-19.67.94-2.81,1.4-5.37,3.25-7.58,5.48-6.85-8.35-17.17-11.99-26.48-9.09-13.11,4.1-19.95,19.72-15.24,34.84.85,2.75,2.07,5.38,3.61,7.82-4.31,6.43-6.77,14.1-7.19,22.6-.59,12.05,3.03,22.83,10.5,31.18,2.24,2.5,4.77,4.73,7.54,6.63l-1.27,2.12c-.66,1.09-.3,2.51.79,3.17,1.09.66,2.51.3,3.17-.79h0l1.25-2.08c5.78,3.17,12.47,5.24,19.85,6.11.79.09,1.6.17,2.42.25l-.13,2.61c-.07,1.27.9,2.37,2.18,2.44,0,0,0,0,0,0h.12c1.23,0,2.25-.96,2.31-2.2l.13-2.57c.91.03,1.82.04,2.75.04,6.01.02,12.01-.62,17.88-1.9l1.05,2.6c.48,1.18,1.83,1.76,3.01,1.28s1.76-1.83,1.28-3.01h0l-.82-2.02c2.97-.87,5.87-1.97,8.66-3.29.07-.03.14-.07.21-.12,3.38-1.61,6.54-3.63,9.42-6.01l1.19,1.39c.83.97,2.29,1.08,3.26.24.97-.83,1.08-2.29.24-3.26h0l-1.33-1.54c5.21-5.54,8.5-12.33,9.83-20.31l5.95-3.47c1.1-.64,1.47-2.06.83-3.16-.16-.28-.38-.51-.64-.7h0Zm-56.7-61.12c5.27-2.62,10.88-2.91,15.81-.82,4.43,1.88,7.94,5.59,9.86,10.44,1.62,4.07,2.05,8.72,1.27,13.34-.1-.05-.2-.09-.3-.14h-.02c-8.49-4.11-17.37-5.94-24.42-6.73.66-.91,1.39-1.77,2.19-2.56.52.17,1.07.26,1.62.26,2.92,0,5.3-2.36,5.3-5.29,0-.63-.11-1.25-.33-1.84-1.07-2.72-4.15-4.06-6.87-2.99-2.63,1.04-3.98,3.96-3.07,6.64v.02c-1.58,1.6-2.96,3.39-4.1,5.33l-.85-.04-.61-.02c-.34,0-.68-.02-1-.03h-1.63s-.31-.01-.31-.01h-1.28c-.39,0-.76.02-1.14.03l-.83.04h-.27c-.73.05-1.46.1-2.17.17,0-.03.02-.06.03-.09.11-.34.23-.69.36-1.02l.06-.16c.13-.35.27-.7.42-1.05s.3-.69.46-1.03c.06-.13.12-.25.18-.38.1-.21.2-.41.31-.61.08-.16.17-.32.26-.48s.17-.31.26-.46.21-.37.32-.56l.2-.33c.13-.22.27-.43.41-.65l.09-.13c.54-.82,1.13-1.61,1.76-2.37.03-.04.06-.08.09-.12,2.18-2.63,4.88-4.78,7.93-6.32Zm-46.95,25.72c-3.96-12.69,1.53-25.73,12.22-29.05,1.66-.52,3.38-.78,5.12-.78,6.21,0,12.48,3.27,16.91,9.01-.76,1.04-1.47,2.12-2.1,3.24v.02c-.32.55-.62,1.1-.9,1.67-.02.04-.04.09-.06.13-.11.23-.22.45-.32.67l-.09.2c-.12.27-.24.54-.36.81-.15.35-.29.69-.42,1.05l-.1.25c-.13.35-.26.7-.38,1.06,0,.02,0,.03-.02.05-.11.34-.23.69-.32,1.03l-.08.26c-.1.36-.2.72-.3,1.09h0c-3.44.6-6.81,1.56-10.06,2.86-.19-1.54-.22-3.1-.11-4.65,2.45-1.11,3.69-3.89,2.87-6.46h0c-.9-2.78-3.88-4.31-6.67-3.41-2.78.9-4.31,3.88-3.41,6.67.43,1.32,1.35,2.42,2.58,3.07-.15,2.28-.03,4.57.36,6.82-2.03,1.08-3.98,2.32-5.82,3.71l-.11.09-.58.46-.44.35-.41.34-.6.51-.19.17c-.19.17-.37.33-.56.5l-.09.08-.1.1c-.18.16-.35.33-.53.5l-.21.2c-.16.15-.31.31-.46.46-.08.08-.17.16-.25.25l-.19.2c-.54.56-1.07,1.13-1.57,1.72-.92-1.67-1.66-3.42-2.23-5.23Zm34.36,73.54c-7.54-.88-14.26-3.12-19.89-6.58l-.1-.06s-.04-.02-.06-.03c-3.1-1.91-5.92-4.26-8.35-6.98-6.64-7.42-9.86-17.06-9.32-27.86.4-8.13,2.86-15.4,7.18-21.35.02-.03.05-.05.07-.08.56-.77,1.15-1.52,1.77-2.24l.15-.17c.13-.15.26-.3.39-.44l.44-.48s.07-.07.1-.11c.62-.66,1.26-1.3,1.94-1.92,2.1-1.91,4.4-3.59,6.87-4.99,1.22,3.6,2.7,5.84,2.83,6.03.66,1.09,2.08,1.44,3.18.78,1.09-.66,1.44-2.08.78-3.18-.04-.06-.08-.12-.12-.18-1.06-1.72-1.89-3.57-2.47-5.51.75-.32,1.51-.61,2.28-.89,2.93-1.04,5.95-1.79,9.03-2.24h0c1.44-.22,2.91-.37,4.41-.47h.19s.69-.05.69-.05l.42-.02.54-.02c.28,0,.55-.02.83-.02h2.76l.77.02c-1.12,2.72-1.91,5.56-2.34,8.46-.16,1.27.74,2.42,2.01,2.58,0,0,0,0,0,0,.09.01.19.02.28.02,1.17,0,2.15-.87,2.29-2.03.48-3.03,1.39-5.97,2.68-8.75,5.83.5,11.58,1.65,17.16,3.42,1.74,4.53,4.34,13.11,4.98,25.13.83,15.39-1.72,31.82-7.59,48.84-9.15,2.13-18.79,2.32-26.76,1.39Zm43.18-8.09c7.45-26.35,5.64-46.48,2.79-58.75,1.33,1.03,2.59,2.14,3.76,3.34,5.9,6.1,9.06,13.71,9.43,22.68.01.27.02.54.03.8v1.22c0,.31,0,.62-.01.92v.12c0,.35-.02.69-.04,1.04-.07,1.39-.2,2.77-.4,4.15,0,0,0,.02,0,.03-1.27,8.85-5.17,16.08-11.62,21.54-1.25,1.05-2.56,2.02-3.93,2.91h0Z"/>
    <circle class="cls-2" cx="58.51" cy="90.73" r="4.46"/>
    <circle class="cls-2" cx="93.21" cy="90.73" r="4.46"/>
    <path class="cls-2" d="m86.24,95.07h-20.75c-1.28,0-2.31,1.03-2.31,2.31-.09,7.01,5.51,12.76,12.51,12.86,7.01.09,12.76-5.51,12.86-12.51,0-.11,0-.23,0-.34,0-1.28-1.03-2.31-2.31-2.31Z"/>
  </g>
</svg>