<?xml version="1.0" encoding="UTF-8"?>
<svg id="Capa_1" data-name="Capa 1" xmlns="http://www.w3.org/2000/svg" viewBox="0 0 251 164">
  <defs>
    <style>
      .cls-1 {
        fill: #fff;
      }

      .cls-2, .cls-3 {
        fill: none;
        stroke: #037250;
        stroke-miterlimit: 10;
        stroke-width: 2px;
      }

      .cls-4 {
        fill: #037250;
      }

      .cls-3 {
        stroke-dasharray: 0 0 5.99 5.99;
      }
    </style>
  </defs>
  <g>
    <path class="cls-4" d="m124.7,116.89v.23h-30.3c-.09-.21.15-.08.18-.17.81-.05,1.63-.07,2.44-.14.73-.05,1.45-.16,2.18-.23,1.02-.09,2.05-.16,3.08-.24.34-.02.67-.04,1.01-.06.68-.04,1.36-.09,2.05-.12,1.44-.05,2.89-.09,4.33-.11.44,0,.87.08,1.31.1.34.02.68-.02,1.02.02.97.1,1.93.23,2.89.34.48.05.97.08,1.45.13.47.05.93.13,1.39.17.1,0,.25-.09.29-.18.14-.28.26-.58.37-.88.07-.2.17-.25.35-.16,1.15.58,2.38.9,3.63,1.15.21.04.42.02.63.03.57.04,1.13.08,1.7.12Z"/>
    <path class="cls-4" d="m137.9,116.9c-.02.07-.04.15-.06.22h-10.62c-.04-.07-.08-.15-.12-.22h.24c1.32-.06,2.62-.26,3.86-.74.43-.16.85-.35,1.27-.53.22-.1.43-.1.64.04.79.5,1.64.82,2.56.96.74.12,1.48.18,2.23.27Z"/>
    <path class="cls-4" d="m237.92,80.34v1.38s-.05.04-.05.06.03.04.05.06v.18s-.04.02-.05.03c.01.01.03.02.05.03v.9c-.02.1-.04.2-.06.29-.04.13-.08.25-.12.37,0-1.18-.01-2.36-.01-3.54.06.08.13.16.19.24Z"/>
    <path class="cls-4" d="m127.22,117.12h-2.52v-.23c.8,0,1.6,0,2.4,0,.04.07.08.15.12.22Z"/>
    <path class="cls-4" d="m140.18,117.12h-2.34c.02-.07.04-.15.06-.22h2.22c.02.07.04.15.06.22Z"/>
    <path class="cls-4" d="m19.51,72.71c0,.5-.01,1.01-.01,1.51,0,.17-.06.24-.22.12v-1.44c.08-.06.16-.13.23-.19Z"/>
    <path class="cls-4" d="m19.51,77.24v.76h-.23v-.78c.08.01.15.01.23.02Z"/>
    <path class="cls-4" d="m19.51,77.24c-.08-.01-.15-.01-.23-.02v-.6c.03-.09.07-.18.1-.26.02-.01.04-.01.07-.01.02.3.04.59.06.89Z"/>
    <path class="cls-4" d="m94.4,117.12h-.48c.03-.07.05-.13.08-.2.19.01.39.02.58.03-.03.09-.27-.04-.18.17Z"/>
    <path class="cls-4" d="m237.86,83.27c.02-.1.04-.2.06-.29v.36s-.04-.04-.06-.07Z"/>
    <path class="cls-4" d="m237.92,81.84s-.05-.04-.05-.06c0-.02.03-.04.05-.06v.12Z"/>
    <path class="cls-4" d="m237.92,82.08s-.04-.02-.05-.03c.02,0,.04-.02.05-.03v.06Z"/>
    <path class="cls-4" d="m237.73,80.1c-.08-1.39-.52-2.7-.93-4.01-.03-.08-.14-.15-.22-.21-.06-.05-.15-.06-.22-.09-.67-.21-.64-.11-.56-.92.06-.64.1-1.28.14-1.92.05-.87.15-1.74.11-2.61-.14-3.08-1.32-5.66-3.82-7.57-1.5-1.14-3.22-1.75-5.03-2.1-1.49-.28-3-.42-4.52-.36-1.62.06-3.23.18-4.79.73-.2.07-.43.1-.64.1-1.53-.01-3.06-.03-4.59-.06-1.43-.03-2.87-.09-4.3-.12-1.37-.03-2.73-.04-4.1-.06-.28,0-.63-.11-.56.39-.65-.22-1.26-.48-1.88-.64-.53-.13-1.08-.18-1.62-.23-1.58-.15-3.15.03-4.71.34-.68.14-1.38.2-2.07.25-.97.07-1.93.11-2.89.13-2.12.03-4.23.05-6.35.05-.82,0-1.65-.04-2.46-.12-1.21-.12-2.41-.29-3.61-.44-.31-.04-.63-.1-.94-.15-.19-.03-.3.01-.38.22-.18.53-.41,1.04-.61,1.56-.09.22-.18.3-.43.17-1.78-.89-3.69-1.39-5.65-1.69-.84-.14-1.7-.21-2.55-.25-1.32-.07-2.65-.16-3.97-.12-3.24.11-6.44.53-9.46,1.85-.25.11-.49.25-.74.38-.11.06-.22.11-.37.19-.05-.24-.08-.43-.14-.62-.39-1.29-.79-2.59-1.18-3.89-.06-.2-.17-.29-.39-.27-.91.08-1.81.15-2.71.22-.78.07-1.57.15-2.35.21-.78.05-1.57.1-2.35.12-1.05.03-2.11.07-3.16.05-1.15-.02-2.29-.1-3.43-.17-1.09-.07-2.17-.15-3.26-.24-.52-.04-1.04-.11-1.56-.17-.26-.02-.5-.03-.63.27-.45,1.06-.91,2.12-1.36,3.19-.03.07-.05.15-.07.23-.1.39-.11.4-.49.21-.9-.47-1.82-.86-2.82-1.07-1.33-.27-2.67-.51-4.04-.5-.78,0-1.57-.04-2.35.01-1.24.06-2.46.23-3.65.62-.3.1-.62.15-.94.15-1.51-.01-3.03-.03-4.54-.06-1.44-.03-2.87-.09-4.3-.12-1.42-.03-2.83-.05-4.25-.05-1.05-.01-2.11.03-3.17.05-2.04.04-4.09.11-6.13.1-.64,0-1.28-.18-1.91-.31-1.45-.29-2.91-.38-4.39-.32-1.88.07-3.72.37-5.47,1.09-.78.32-1.52.75-2.27,1.14-.16.09-.31.21-.52.34-.15-.74-.3-1.44-.46-2.16-1.02,0-2.03-.02-3.03,0-2.28.05-4.55.13-6.83.18-1.19.03-2.37.06-3.56.05-.34-.01-.67-.17-1-.23-.27-.06-.55-.07-.82-.11-1.55-.24-3.12-.35-4.69-.3-2.04.05-4.02.4-5.86,1.31-.88.44-1.71.97-2.41,1.67-.15.15-.26.16-.43.04-1.16-.83-2.44-1.39-3.78-1.84-1.27-.43-2.57-.74-3.9-.89-1.01-.11-2.01-.24-3.02-.29-1.13-.06-2.27-.1-3.41-.06-2.07.09-4.14.27-6.17.79-2.13.54-4.15,1.33-5.89,2.75-2.3,1.88-3.63,4.33-4.22,7.21-.1.47-.16.95-.24,1.43,0,.05.04.11.05.16,0,.5-.01,1.01-.01,1.51,0,.17-.06.24-.22.12v2.28c.03-.09.07-.18.1-.26.02-.01.04-.01.07-.01.02.3.04.59.06.89v.76c.21,2.59,1.25,4.84,2.81,6.89,1.32,1.74,3.08,2.9,5.04,3.8,1.48.69,3.03,1.09,4.63,1.35.6.1,1.2.14,1.8.19.6.06,1.21.1,1.81.14h2.22c.76-.04,1.52-.06,2.28-.14.77-.07,1.53-.19,2.3-.31,1.98-.32,3.84-1.01,5.61-1.94.07-.04.14-.06.25-.1.06.4.14.78.17,1.16.09.8.08.79.86.8.71,0,1.43.03,2.15.05h2.7c.64-.02,1.28-.04,1.92-.06h.06c.55-.03,1.1-.05,1.64-.07,1.25-.04,2.51-.07,3.76-.11h.06c.61-.02,1.21,0,1.81.15.85.23,1.72.38,2.61.39,1.09.01,2.17.08,3.26.12h.06c1.21-.16,2.43-.24,3.61-.51,1.41-.32,2.76-.88,3.91-1.8.42-.34.79-.75,1.19-1.14.07-.07.13-.17.16-.2.98.6,1.9,1.18,2.84,1.72.95.54,1.97.91,3.06,1.18-.05.15-.08.29-.13.42-.52,1.29-.71,2.64-.77,4.01-.04.87-.06,1.75,0,2.61.08,1.17.32,2.31.68,3.43.21.63.39,1.26.58,1.89.07.25.25.27.44.26.27-.02.35.08.33.34-.09.97-.19,1.94-.23,2.92-.04.84-.02,1.68-.01,2.52.01.94.23,1.84.56,2.71.65,1.77,1.64,3.31,3.24,4.37,1.16.77,2.46,1.19,3.82,1.41.45.07.9.11,1.37.16.01.1.02.2.03.31.19.01.39.02.58.03.81-.05,1.63-.07,2.44-.14.73-.05,1.45-.16,2.18-.23,1.02-.09,2.05-.16,3.08-.24.34-.02.67-.04,1.01-.06.68-.04,1.36-.09,2.05-.12,1.44-.05,2.89-.09,4.33-.11.44,0,.87.08,1.31.1.34.02.68-.02,1.02.02.97.1,1.93.23,2.89.34.48.05.97.08,1.45.13.47.05.93.13,1.39.17.1,0,.25-.09.29-.18.14-.28.26-.58.37-.88.07-.2.17-.25.35-.16,1.15.58,2.38.9,3.63,1.15.21.04.42.02.63.03.57.04,1.13.08,1.7.12.8,0,1.6,0,2.4,0h.24c1.32-.06,2.62-.26,3.86-.74.43-.16.85-.35,1.27-.53.22-.1.43-.1.64.04.79.5,1.64.82,2.56.96.74.12,1.48.18,2.23.27h2.34c.08,0,.16,0,.24,0,1.21-.08,2.43-.17,3.64-.25.69-.04,1.38-.07,2.07-.12.88-.07,1.75-.16,2.63-.23.83-.07,1.66-.16,2.5-.18,1.59-.05,3.19-.06,4.79-.06.57,0,1.13.08,1.7.11.34.01.7-.02,1.05,0,.56.04,1.12.11,1.68.16.35.03.71.05,1.06.08.5.05.99.12,1.49.17.49.05.97.08,1.46.13.27.03.55.1.82.1.1,0,.24-.14.28-.25.35-.85.67-1.7,1.01-2.55.32-.79.56-1.61.66-2.45.08-.64.11-1.29.17-1.93.01-.02.02-.05.04-.07.02-.01.05-.02.07-.03.98,0,1.96,0,2.94,0,.02,0,.04,0,.06,0h.24c.08-.05.2-.09.22-.15.27-.99.58-1.98.79-2.98.16-.75.22-1.52.25-2.28.03-.79-.03-1.58-.06-2.36,0-.12-.04-.23-.06-.35-.04-.32.04-.59.24-.86.85-1.11,1.3-2.39,1.54-3.75.17-1,.14-2.01.03-3.02-.13-1.2-.36-2.37-.89-3.47-.16-.33-.35-.64-.51-.95,1.16-.5,2.31-1,3.44-1.49.23.74.46,1.49.71,2.23.02.07.16.15.24.14,1.18-.14,2.37-.3,3.56-.43.64-.07,1.28-.11,1.92-.16.43-.04.85-.1,1.27-.12.91-.03,1.82-.05,2.72-.06.28,0,.56.05.83.06.23,0,.45-.07.68-.05.9.04,1.8.12,2.7.16.74.04,1.47.03,2.21.08.69.05,1.37.15,2.06.23.3.03.61.03.91.06.55.05,1.09.13,1.63.16.1.01.27-.12.31-.21.48-1.46,1.25-2.82,1.49-4.35.15-.98.23-1.97.32-2.96.02-.17.03-.31.25-.32.93-.03,1.8-.29,2.67-.57.05-.01.09-.03.17-.05.04.19.06.38.11.55.42,1.54,1.08,2.96,2.13,4.18,1.58,1.82,3.62,2.88,5.93,3.43.91.22,1.85.3,2.77.43.39.05.77.05,1.16.08h.12c.74,0,1.48.05,2.22-.02,1.09-.1,2.19-.23,3.23-.63.66-.26,1.3-.55,1.96-.81.07-.03.2-.02.27.02,1.12.75,2.37,1.12,3.69,1.3.51.07,1.02.09,1.53.14h.06c.83,0,1.66.05,2.49-.02,1.6-.14,3.2-.31,4.77-.72.44-.12.9-.2,1.34-.31.11-.03.25-.12.27-.22.32-1.06.67-2.11.91-3.19.17-.74.21-1.51.3-2.27,0-1.18-.01-2.36-.01-3.54Zm-17.29-11.37s.02-.06.03-.09c.01.02.03.05.05.07-.03.01-.05.02-.08.02Z"/>
    <path class="cls-4" d="m220.52,68.71s-.05.02-.08.02c.01-.03.02-.06.03-.09.01.02.03.05.05.07Z"/>
  </g>
  <g>
    <path class="cls-2" d="m165,96s0-1.26.62-2.92"/>
    <path class="cls-3" d="m169.12,88.31c2.36-1.85,6.06-3.31,11.88-3.31,11.5,0,20.21,9.5,20.21,23,0,4.5,1.29,48-83.21,48S14.5,102.76,14.5,79.38s17.5-51.38,52.5-51.38c60,0,57.5,112.69,117,112.69,47.5,0,58.64-35.19,58.64-54.87,0-38.42-31.55-47.75-45-49.98"/>
    <path class="cls-2" d="m194.67,35.41c-1.88-.22-2.99-.26-2.99-.26"/>
  </g>
  <g>
    <path class="cls-4" d="m192.86,34.35c-.07-.12-.16-.22-.27-.3h0s-2.42-1.76-2.42-1.76c-.28-4.17-1.83-7.74-4.63-10.63-1.19-1.22-2.54-2.28-4.02-3.15.57-2.58.39-5.23-.53-7.53-1.03-2.61-2.93-4.61-5.35-5.63-2.69-1.14-5.71-1-8.53.4-1.22.61-2.33,1.41-3.29,2.38-2.97-3.62-7.44-5.2-11.48-3.94-5.68,1.77-8.65,8.54-6.6,15.1.37,1.19.89,2.33,1.56,3.39-1.87,2.79-2.93,6.11-3.12,9.8-.25,5.22,1.32,9.9,4.56,13.52.97,1.08,2.07,2.04,3.27,2.87l-.56.92c-.28.47-.13,1.09.35,1.37.47.29,1.09.14,1.37-.34l.54-.9c2.51,1.38,5.41,2.27,8.6,2.65.35.04.7.07,1.05.1l-.05,1.14c-.03.55.39,1.02.94,1.05h.06c.53.01.97-.41,1-.95l.05-1.11c.4.01.79.01,1.2.02,2.6,0,5.2-.27,7.75-.83l.45,1.13c.21.51.8.76,1.31.55s.76-.79.55-1.3l-.35-.88c1.29-.38,2.54-.85,3.75-1.43.03-.01.06-.03.09-.05,1.47-.7,2.84-1.57,4.09-2.6l.52.6c.36.42.99.46,1.41.1s.47-.99.1-1.41l-.57-.67c2.26-2.4,3.68-5.35,4.26-8.8l2.58-1.51c.48-.27.64-.89.36-1.37Zm-39.91-28.25c.71-.22,1.46-.34,2.21-.34,2.7,0,5.42,1.42,7.33,3.91-.33.45-.63.92-.91,1.4h0c-.14.25-.27.49-.39.74-.01.01-.02.03-.03.05-.04.1-.09.2-.14.29l-.04.09c-.05.12-.1.24-.15.35-.07.15-.13.3-.18.46l-.05.11c-.05.15-.11.3-.16.46t-.01.02c-.05.15-.1.3-.14.45l-.03.11c-.05.16-.09.31-.13.47-1.49.26-2.95.68-4.36,1.24-.08-.67-.1-1.34-.05-2.02,1.07-.48,1.6-1.68,1.25-2.8-.32-.97-1.23-1.59-2.2-1.59-.23,0-.46.04-.69.11-1.21.39-1.87,1.69-1.48,2.89.18.58.58,1.05,1.12,1.33-.07.99-.02,1.98.15,2.96-.88.47-1.72,1.01-2.52,1.61l-.05.04-.25.2-.19.15-.18.15-.26.22-.09.07c-.08.07-.16.14-.24.22l-.04.03-.04.05c-.08.07-.16.14-.23.21l-.09.09c-.07.06-.14.13-.2.2-.04.03-.08.07-.11.1l-.08.09c-.24.24-.47.49-.68.74-.4-.72-.73-1.48-.97-2.26-1.72-5.51.66-11.16,5.3-12.6Zm21.2,43.88c-3.97.92-8.15,1-11.61.6-3.26-.38-6.18-1.35-8.62-2.85l-.04-.03s-.02-.01-.03-.02c-1.35-.83-2.57-1.84-3.62-3.02-2.88-3.22-4.28-7.4-4.04-12.08.17-3.53,1.24-6.68,3.11-9.26l.03-.03c.24-.34.5-.66.76-.98l.07-.07c.05-.06.11-.13.17-.19l.19-.21s.03-.03.04-.05c.27-.28.55-.56.84-.83.91-.83,1.91-1.56,2.98-2.16.53,1.56,1.17,2.53,1.23,2.61.28.47.9.62,1.37.34.48-.29.63-.91.34-1.38-.02-.03-.03-.05-.05-.08-.46-.74-.82-1.55-1.07-2.38.32-.14.65-.27.99-.39,1.27-.45,2.58-.78,3.91-.97.63-.09,1.27-.16,1.91-.21h.09l.3-.02h.18s.23-.02.23-.02c.12,0,.24,0,.36-.01h1.53c-.48,1.19-.82,2.42-1.01,3.68-.07.55.32,1.05.87,1.12h.12c.51,0,.94-.37,1-.87.21-1.32.6-2.59,1.16-3.8,2.53.22,5.02.72,7.44,1.49.75,1.96,1.88,5.68,2.16,10.89.36,6.67-.75,13.8-3.29,21.18Zm5.53-32.48s-.08-.04-.13-.06c-1.85-.9-3.73-1.54-5.53-2-1.8-.47-3.53-.75-5.06-.92.29-.39.6-.77.95-1.11.23.07.46.11.7.11,1.27,0,2.3-1.02,2.3-2.29,0-.27-.05-.54-.14-.8-.47-1.18-1.8-1.76-2.98-1.29-1.14.45-1.73,1.71-1.33,2.87h0c-.69.7-1.29,1.48-1.78,2.32l-.37-.02h-.26c-.15-.01-.3-.02-.44-.02h-.7s-.69-.01-.69-.01c-.17,0-.33.01-.5.02h-.36s-.12.02-.12.02c-.31,0-.63.04-.94.06,0-.01.01-.02.01-.04.05-.14.1-.3.16-.44l.03-.07c.05-.15.11-.31.18-.46.06-.15.13-.3.2-.44.02-.06.05-.11.08-.17.04-.09.09-.18.13-.26.04-.07.08-.14.11-.21.04-.07.08-.14.11-.2.04-.07.1-.16.15-.24l.08-.15c.06-.09.12-.19.18-.28l.04-.06c.23-.35.49-.69.76-1.02.02-.02.03-.04.04-.06.95-1.14,2.12-2.07,3.44-2.74,2.29-1.13,4.72-1.26,6.86-.35,1.92.81,3.44,2.42,4.27,4.52.7,1.77.89,3.79.55,5.79Zm8.52,16.26c0,.14,0,.27-.01.4v.05c0,.15-.01.3-.01.45-.03.61-.09,1.21-.18,1.8v.02c-.55,3.83-2.24,6.97-5.03,9.33-.54.46-1.11.88-1.71,1.27h0c3.24-11.43,2.45-20.16,1.21-25.48.58.45,1.12.93,1.63,1.45,2.56,2.64,3.93,5.95,4.09,9.84,0,.11.01.23.01.34v.53Z"/>
    <path class="cls-1" d="m162.49,9.67c-.33.45-.63.92-.91,1.4h0c-.14.25-.27.49-.39.74-.01.01-.02.03-.03.05-.04.1-.09.2-.14.29l-.04.09c-.05.12-.1.24-.15.35-.07.15-.13.3-.18.46l-.05.11c-.05.15-.11.3-.16.46t-.01.02c-.05.15-.1.3-.14.45l-.03.11c-.05.16-.09.31-.13.47-1.49.26-2.95.68-4.36,1.24-.08-.67-.1-1.34-.05-2.02,1.07-.48,1.6-1.68,1.25-2.8-.32-.97-1.23-1.59-2.2-1.59-.23,0-.46.04-.69.11-1.21.39-1.87,1.69-1.48,2.89.18.58.58,1.05,1.12,1.33-.07.99-.02,1.98.15,2.96-.88.47-1.72,1.01-2.52,1.61l-.05.04-.25.2-.19.15-.18.15-.26.22-.09.07c-.08.07-.16.14-.24.22l-.04.03-.04.05c-.08.07-.16.14-.23.21l-.09.09c-.07.06-.14.13-.2.2-.04.03-.08.07-.11.1l-.08.09c-.24.24-.47.49-.68.74-.4-.72-.73-1.48-.97-2.26-1.72-5.51.66-11.16,5.3-12.6.71-.22,1.46-.34,2.21-.34,2.7,0,5.42,1.42,7.33,3.91Z"/>
    <path class="cls-1" d="m179.68,17.5s-.08-.04-.13-.06c-1.85-.9-3.73-1.54-5.53-2-1.8-.47-3.53-.75-5.06-.92.29-.39.6-.77.95-1.11.23.07.46.11.7.11,1.27,0,2.3-1.02,2.3-2.29,0-.27-.05-.54-.14-.8-.47-1.18-1.8-1.76-2.98-1.29-1.14.45-1.73,1.71-1.33,2.87h0c-.69.7-1.29,1.48-1.78,2.32l-.37-.02h-.26c-.15-.01-.3-.02-.44-.02h-.7s-.69-.01-.69-.01c-.17,0-.33.01-.5.02h-.36s-.12.02-.12.02c-.31,0-.63.04-.94.06,0-.01.01-.02.01-.04.05-.14.1-.3.16-.44l.03-.07c.05-.15.11-.31.18-.46.06-.15.13-.3.2-.44.02-.06.05-.11.08-.17.04-.09.09-.18.13-.26.04-.07.08-.14.11-.21.04-.07.08-.14.11-.2.04-.07.1-.16.15-.24l.08-.15c.06-.09.12-.19.18-.28l.04-.06c.23-.35.49-.69.76-1.02.02-.02.03-.04.04-.06.95-1.14,2.12-2.07,3.44-2.74,2.29-1.13,4.72-1.26,6.86-.35,1.92.81,3.44,2.42,4.27,4.52.7,1.77.89,3.79.55,5.79Z"/>
    <path class="cls-1" d="m188.2,33.23v.53c0,.14,0,.27-.01.4v.05c0,.15-.01.3-.01.45-.03.61-.09,1.21-.18,1.8v.02c-.55,3.83-2.24,6.97-5.03,9.33-.54.46-1.11.88-1.71,1.27h0c3.24-11.43,2.45-20.16,1.21-25.48.58.45,1.12.93,1.63,1.45,2.56,2.64,3.93,5.95,4.09,9.84,0,.11.01.23.01.34Z"/>
    <path class="cls-1" d="m177.44,28.8c-.28-5.21-1.41-8.93-2.16-10.89-2.42-.77-4.91-1.27-7.44-1.49-.56,1.21-.95,2.48-1.16,3.8-.06.5-.49.87-1,.87h-.12c-.55-.07-.94-.57-.87-1.12.19-1.26.53-2.49,1.01-3.67h-.33s-1.2-.01-1.2-.01c-.12.01-.24.01-.36.01h-.23s-.18.02-.18.02l-.3.02h-.09c-.64.05-1.28.12-1.91.21-1.33.19-2.64.52-3.91.97-.34.12-.67.25-.99.39.25.83.61,1.64,1.07,2.38.02.03.03.05.05.08.29.47.14,1.09-.34,1.38-.47.28-1.09.13-1.37-.34-.06-.08-.7-1.05-1.23-2.61-1.07.6-2.07,1.33-2.98,2.16-.29.27-.57.55-.84.83-.01.02-.03.03-.04.05l-.19.21c-.06.06-.12.13-.17.19l-.07.07c-.26.32-.52.64-.76.98l-.03.03c-1.87,2.58-2.94,5.73-3.11,9.26-.24,4.68,1.16,8.86,4.04,12.08,1.05,1.18,2.27,2.19,3.62,3.02.01.01.02.01.03.02l.04.03c2.44,1.5,5.36,2.47,8.62,2.85,3.46.4,7.64.32,11.61-.6,2.54-7.38,3.65-14.51,3.29-21.18Zm-23.24,5.62c-1.07,0-1.93-.87-1.93-1.94s.86-1.93,1.93-1.93,1.93.87,1.93,1.93-.86,1.94-1.93,1.94Zm13.02,1.1c-.04,3.04-2.53,5.47-5.57,5.42-3.04-.04-5.47-2.53-5.43-5.57,0-.55.45-1,1.01-1h8.99c.56,0,1,.45,1,1v.15Zm2.03-1.1c-1.07,0-1.94-.87-1.94-1.94s.87-1.93,1.94-1.93,1.93.87,1.93,1.93-.87,1.94-1.93,1.94Z"/>
    <path class="cls-4" d="m156.13,32.48c0,1.07-.86,1.94-1.93,1.94s-1.93-.87-1.93-1.94.86-1.93,1.93-1.93,1.93.87,1.93,1.93Z"/>
    <path class="cls-4" d="m171.18,32.48c0,1.07-.87,1.94-1.93,1.94s-1.94-.87-1.94-1.94.87-1.93,1.94-1.93,1.93.87,1.93,1.93Z"/>
    <path class="cls-4" d="m167.22,35.37v.15c-.04,3.04-2.53,5.47-5.57,5.42-3.04-.04-5.47-2.53-5.43-5.57,0-.55.45-1,1.01-1h8.99c.56,0,1,.45,1,1Z"/>
  </g>
  <g>
    <path class="cls-1" d="m36.66,86.36c-3.13,0-5.69-.44-7.66-1.31-1.97-.87-3.42-2.13-4.34-3.76-.92-1.63-1.38-3.61-1.38-5.91,0-2.65.49-4.79,1.48-6.4.99-1.61,2.53-2.79,4.63-3.53s4.8-1.11,8.1-1.11c2.46,0,4.66.26,6.59.78,1.93.52,3.46,1.28,4.57,2.29s1.67,2.25,1.67,3.73c0,.54-.08,1.08-.25,1.63s-.5,1.04-1,1.49-1.25.8-2.25,1.07c-1,.27-2.34.4-4.01.4-1.12,0-2.12-.01-3.01-.04-.89-.03-1.72-.08-2.47-.16h-1.44v2.13h1.41v-1.15c4.08-.19,8.38-.19,12.92,0,0,2.13-.46,3.93-1.38,5.39s-2.38,2.57-4.35,3.33c-1.98.76-4.6,1.14-7.84,1.14Zm-.75-12.34h1.41v-1.67h-1.41v1.67Z"/>
    <path class="cls-1" d="m68.44,86.3c-2.46,0-4.34-.31-5.64-.92s-1.97-1.7-2-3.26c-.23.65-.3,1.26-.22,1.83.09.57.23,1.13.42,1.69-1.9.06-3.63.12-5.19.17-1.56.06-2.85.08-3.87.06-.25-1.42-.39-2.84-.42-4.24-.03-1.4.07-2.88.3-4.44,1.4,0,2.75.17,4.05.5s2.45.87,3.45,1.6l.55-.66c-.56-.4-1.14-.74-1.75-1s-1.25-.5-1.92-.71c-.9-.31-1.73-.71-2.47-1.21s-1.32-1.13-1.75-1.9-.63-1.71-.63-2.83c0-1.19.27-2.29.82-3.29.55-1,1.42-1.8,2.61-2.41,1.19-.61,2.73-.91,4.61-.91,2.44,0,4.32.32,5.64.97,1.32.64,2,1.79,2.03,3.45.25-.67.34-1.3.27-1.89-.07-.59-.22-1.21-.45-1.86,1.37-.02,2.54-.04,3.53-.07.99-.03,1.89-.06,2.7-.09.81-.03,1.59-.04,2.34-.04.27,1.27.41,2.64.43,4.12.02,1.48-.08,2.99-.29,4.53-1.4-.02-2.59-.16-3.55-.43-.96-.27-1.89-.68-2.8-1.24l-.49.69c.48.31.92.55,1.33.74.4.18.77.34,1.1.48,1.17.48,2.13,1,2.88,1.54.75.55,1.31,1.21,1.67,1.99.37.78.55,1.74.55,2.9,0,1.4-.25,2.52-.75,3.34-.5.83-1.15,1.44-1.95,1.83-.8.39-1.65.65-2.57.78s-1.78.19-2.61.19Z"/>
    <path class="cls-1" d="m91.14,86.39c-3.27,0-5.92-.47-7.95-1.4-2.03-.93-3.51-2.24-4.44-3.92-.93-1.68-1.4-3.65-1.4-5.9s.45-4.15,1.34-5.75c.89-1.6,2.15-2.84,3.76-3.72,1.62-.88,3.5-1.31,5.65-1.31s3.72.33,4.89,1,1.77,1.91,1.83,3.73c.21-.67.29-1.35.25-2.03-.05-.68-.11-1.35-.19-2,.63,0,1.36,0,2.18-.03.82-.02,1.66-.04,2.52-.07.87-.03,1.68-.05,2.45-.07.77-.02,1.42-.03,1.96-.03.12.52.21,1.18.27,1.98s.11,1.66.13,2.6c.02.93,0,1.85-.06,2.75-.06.9-.14,1.71-.26,2.42-.56.08-1.27.14-2.13.19s-1.8.08-2.8.1c-1,.02-2,.02-3,0-1-.02-1.92-.05-2.75-.1-.84-.05-1.5-.11-2-.19l-.03-1.07h-1.38v3.37h1.38v-1.18c4.11-.19,8.41-.19,12.89,0-.08,2.4-.56,4.39-1.46,5.97-.89,1.58-2.28,2.75-4.17,3.52-1.88.77-4.38,1.15-7.5,1.15Z"/>
    <path class="cls-1" d="m114.59,86.36c-2.31,0-4.13-.3-5.46-.89-1.34-.6-2.29-1.38-2.87-2.34-.58-.96-.87-2-.87-3.12,0-1.69.6-3.07,1.79-4.12,1.19-1.06,3.1-1.6,5.71-1.62l6.11-.06v-1.53h-1.59v.78c-1.96.08-3.89.15-5.8.23s-3.8.05-5.68-.09c-.48-3-.43-5.9.14-8.71.56,0,1.24,0,2.03.03.8.02,1.64.04,2.54.07.89.03,1.77.05,2.64.07s1.63.04,2.31.06c-.25.58-.39,1.15-.42,1.73-.03.58.05,1.13.25,1.67.1-1.6.7-2.7,1.82-3.32,1.11-.61,2.69-.92,4.73-.92,2.63,0,4.65.38,6.06,1.14,1.4.76,2.34,1.89,2.8,3.39.23.71.33,1.48.3,2.29-.03.82-.09,1.61-.19,2.38-.1.77-.14,1.46-.14,2.08,0,1.17.19,2,.56,2.5.38.49.77.81,1.2.97.17.56.27,1.26.3,2.11.03.85,0,1.69-.07,2.54s-.21,1.58-.4,2.19c-.85.19-1.73.32-2.65.39-.92.07-1.67.1-2.25.1-1.46,0-2.61-.17-3.43-.52-.83-.35-1.24-.98-1.24-1.9,0-.33.06-.67.19-1.04.12-.36.27-.76.45-1.18l-.75-.37c-.35.85-.82,1.65-1.43,2.42-.61.77-1.44,1.39-2.51,1.88s-2.46.72-4.17.72Zm2.83-8.45h1.59v-1.82h-1.59v1.82Z"/>
    <path class="cls-1" d="m134.6,85.87c-.15-.38-.28-.88-.38-1.49-.1-.61-.15-1.24-.16-1.92,0-.67,0-1.31.06-1.92.05-.61.14-1.1.27-1.48.29-.12.57-.31.84-.59.27-.28.49-.76.66-1.46s.26-1.68.26-2.97-.1-2.32-.3-2.98c-.2-.66-.44-1.12-.72-1.38-.28-.26-.52-.44-.74-.53-.17-.33-.3-.79-.38-1.4-.08-.61-.11-1.26-.1-1.96,0-.7.06-1.37.16-2.02.1-.64.24-1.18.43-1.6.56.04,1.25.1,2.08.17.83.08,1.73.14,2.7.19.97.05,1.92.07,2.84.07,1.36,0,2.61-.04,3.73-.13s2.09-.17,2.9-.25c.17.54.3,1.05.38,1.54.08.49.12.99.12,1.49,0,.9-.09,1.79-.27,2.67-.18.88-.37,1.82-.55,2.83-.18,1.01-.27,2.19-.27,3.53,0,1.21.09,2.14.26,2.8.17.65.39,1.12.66,1.4.27.28.55.48.84.59.17.6.28,1.33.32,2.21s.01,1.73-.07,2.57c-.09.84-.24,1.51-.45,2.03-.54-.06-1.23-.12-2.08-.19s-1.75-.12-2.71-.17c-.96-.05-1.89-.07-2.8-.07s-1.86.02-2.81.07c-.95.05-1.84.11-2.67.17-.83.07-1.51.13-2.05.19Z"/>
    <path class="cls-1" d="m164.1,86.36c-3.13,0-5.69-.44-7.66-1.31-1.97-.87-3.42-2.13-4.34-3.76-.92-1.63-1.38-3.61-1.38-5.91,0-2.65.5-4.79,1.49-6.4.99-1.61,2.53-2.79,4.63-3.53s4.8-1.11,8.1-1.11c2.46,0,4.66.26,6.59.78,1.93.52,3.46,1.28,4.57,2.29s1.67,2.25,1.67,3.73c0,.54-.08,1.08-.25,1.63s-.5,1.04-1,1.49-1.25.8-2.25,1.07c-1,.27-2.34.4-4.01.4-1.12,0-2.12-.01-3.01-.04-.89-.03-1.72-.08-2.47-.16h-1.44v2.13h1.41v-1.15c4.08-.19,8.38-.19,12.92,0,0,2.13-.46,3.93-1.38,5.39s-2.38,2.57-4.35,3.33c-1.98.76-4.6,1.14-7.84,1.14Zm-.75-12.34h1.41v-1.67h-1.41v1.67Z"/>
    <path class="cls-1" d="m179.42,85.87c-.19-.62-.33-1.35-.42-2.19-.09-.85-.11-1.69-.07-2.54.04-.85.13-1.55.29-2.11.44-.12.85-.42,1.21-.91s.55-1.31.55-2.47c0-.98-.1-1.75-.3-2.29-.2-.55-.43-.94-.68-1.17s-.47-.36-.66-.38c-.19-.63-.32-1.39-.39-2.26-.07-.88-.06-1.75.03-2.61s.25-1.58.48-2.13c.9.12,1.92.21,3.06.27,1.13.07,2.3.1,3.49.1s2.37-.01,3.52-.04c1.15-.03,2.11-.06,2.86-.1-.19.21-.39.52-.61.94-.21.41-.4.86-.56,1.34-.16.48-.28.94-.36,1.37s-.09.76-.03,1c.33-.92.84-1.79,1.53-2.6s1.59-1.47,2.7-1.98c1.11-.51,2.42-.76,3.94-.76,1.96,0,3.52.55,4.67,1.64,1.15,1.1,1.73,2.82,1.73,5.16s-.66,4.05-1.98,5.33c-1.32,1.29-3.09,1.93-5.32,1.93-1.4,0-2.52-.34-3.36-1.02-.84-.68-1.25-1.66-1.23-2.93h-.84c-.02,1.08.18,1.97.59,2.68.41.71,1.03,1.32,1.86,1.82.13.4.23.91.27,1.53.05.62.06,1.26.04,1.95-.02.68-.08,1.33-.17,1.93-.1.61-.22,1.1-.38,1.49-.63-.06-1.44-.12-2.42-.19s-2.02-.12-3.11-.17-2.14-.07-3.14-.07c-1.44,0-2.74.05-3.88.14-1.14.1-2.11.19-2.9.29Z"/>
    <path class="cls-1" d="m215.55,86.36c-2.31,0-4.13-.3-5.46-.89-1.34-.6-2.29-1.38-2.87-2.34-.58-.96-.87-2-.87-3.12,0-1.69.6-3.07,1.79-4.12,1.19-1.06,3.1-1.6,5.71-1.62l6.11-.06v-1.53h-1.59v.78c-1.96.08-3.89.15-5.8.23s-3.8.05-5.68-.09c-.48-3-.43-5.9.14-8.71.56,0,1.24,0,2.03.03.8.02,1.64.04,2.54.07.89.03,1.77.05,2.64.07s1.63.04,2.31.06c-.25.58-.39,1.15-.42,1.73-.03.58.05,1.13.25,1.67.1-1.6.7-2.7,1.82-3.32,1.11-.61,2.69-.92,4.73-.92,2.63,0,4.65.38,6.06,1.14,1.4.76,2.34,1.89,2.8,3.39.23.71.33,1.48.3,2.29-.03.82-.09,1.61-.19,2.38-.1.77-.14,1.46-.14,2.08,0,1.17.19,2,.56,2.5.38.49.77.81,1.2.97.17.56.27,1.26.3,2.11.03.85,0,1.69-.07,2.54s-.21,1.58-.4,2.19c-.85.19-1.73.32-2.65.39-.92.07-1.67.1-2.25.1-1.46,0-2.61-.17-3.43-.52-.83-.35-1.24-.98-1.24-1.9,0-.33.06-.67.19-1.04.12-.36.27-.76.45-1.18l-.75-.37c-.35.85-.82,1.65-1.43,2.42-.61.77-1.44,1.39-2.51,1.88s-2.46.72-4.17.72Zm2.83-8.45h1.59v-1.82h-1.59v1.82Z"/>
    <path class="cls-1" d="m95.55,112.65c-1.65,0-3-.22-4.04-.66-1.04-.44-1.78-1.35-2.22-2.71-.25-.81-.37-1.6-.36-2.37,0-.77.06-1.54.16-2.31.1-.77.14-1.55.14-2.34,0-.98-.1-1.75-.3-2.29-.2-.55-.43-.94-.68-1.17s-.47-.36-.66-.38c-.19-.63-.32-1.39-.39-2.26-.07-.88-.06-1.75.03-2.61s.25-1.58.48-2.13c.9.12,1.92.21,3.06.27,1.13.07,2.3.1,3.49.1,1.42,0,2.73-.05,3.94-.14,1.2-.1,2.16-.18,2.87-.26v11.1h1.04v-3.98c-.12-.67-.19-1.47-.22-2.39-.03-.92-.01-1.82.04-2.68.06-.87.15-1.55.29-2.05.46.04.96.1,1.5.17.54.08,1.2.14,1.99.19s1.77.07,2.94.07c1.44,0,2.68-.05,3.72-.14,1.04-.1,1.74-.18,2.11-.26.17.54.29,1.05.35,1.54s.09.98.09,1.46c0,.9-.09,1.77-.27,2.61-.18.84-.37,1.66-.55,2.48s-.27,1.66-.27,2.52.09,1.49.27,1.99c.18.5.41.87.69,1.11.28.24.55.42.82.53.13.38.23.88.27,1.48.05.61.07,1.25.06,1.92,0,.67-.06,1.31-.16,1.92-.1.61-.22,1.1-.38,1.49-.77-.1-1.6-.19-2.48-.27-.88-.09-1.84-.13-2.86-.13-1.37,0-2.49,0-3.37.03s-1.62.04-2.19.07c-.58.03-1.1.06-1.56.1.38-.46.7-1.11.95-1.96.25-.85.34-1.72.26-2.62-.19.9-.63,1.74-1.31,2.49-.68.76-1.62,1.36-2.83,1.8-1.2.44-2.69.66-4.46.66Z"/>
    <path class="cls-1" d="m126.12,112.97c-2.31,0-4.13-.3-5.46-.89-1.34-.6-2.29-1.38-2.87-2.34-.58-.96-.87-2-.87-3.12,0-1.69.6-3.07,1.79-4.12,1.19-1.06,3.1-1.6,5.71-1.62l6.11-.06v-1.53h-1.59v.78c-1.96.08-3.89.15-5.8.23s-3.8.05-5.68-.09c-.48-3-.43-5.9.14-8.71.56,0,1.24,0,2.03.03.8.02,1.64.04,2.54.07.89.03,1.77.05,2.64.07s1.63.04,2.31.06c-.25.58-.39,1.15-.42,1.73-.03.58.05,1.13.25,1.67.1-1.6.7-2.7,1.82-3.32,1.11-.61,2.69-.92,4.73-.92,2.63,0,4.65.38,6.06,1.14,1.4.76,2.34,1.89,2.8,3.39.23.71.33,1.48.3,2.29-.03.82-.09,1.61-.19,2.38-.1.77-.14,1.46-.14,2.08,0,1.17.19,2,.56,2.5.38.49.77.81,1.2.97.17.56.27,1.26.3,2.11.03.85,0,1.69-.07,2.54s-.21,1.58-.4,2.19c-.85.19-1.73.32-2.65.39-.92.07-1.67.1-2.25.1-1.46,0-2.61-.17-3.43-.52-.83-.35-1.24-.98-1.24-1.9,0-.33.06-.67.19-1.04.12-.36.27-.76.45-1.18l-.75-.37c-.35.85-.82,1.65-1.43,2.42-.61.77-1.44,1.39-2.51,1.88s-2.46.72-4.17.72Zm2.83-8.45h1.59v-1.82h-1.59v1.82Z"/>
    <path class="cls-1" d="m145.99,112.48c-.15-.38-.28-.88-.38-1.49-.1-.61-.15-1.24-.16-1.92,0-.67,0-1.31.06-1.92.05-.61.14-1.1.27-1.48.27-.1.53-.27.79-.52s.48-.66.65-1.23.28-1.38.32-2.44h-1.87c-.1-.54-.16-1.17-.2-1.9-.04-.73-.04-1.46,0-2.18.04-.72.11-1.35.2-1.89h4.09c-.85-.1-1.48-.45-1.9-1.05-.42-.61-.49-1.32-.2-2.15.38-1.13,1.52-2.1,3.42-2.9,1.89-.8,4.52-1.2,7.89-1.2,2.65,0,4.78.25,6.37.75s2.75,1.26,3.48,2.28c.72,1.02,1.08,2.31,1.08,3.86,0,1.17-.28,2.18-.85,3.03-.57.85-1.31,1.49-2.24,1.93-.92.44-1.94.66-3.06.66-.73,0-1.5-.1-2.31-.29-.81-.19-1.56-.52-2.25-.98l-.46.66c.67.46,1.44.82,2.29,1.07.86.25,1.76.38,2.73.38.77,0,1.49-.1,2.18-.29.68-.19,1.29-.45,1.83-.78.17.52.28,1.1.33,1.75.05.64.06,1.26.04,1.85-.02.59-.08,1.05-.17,1.4h-8.05c.1.38.38.65.87.81.48.15,1.28.2,2.39.14.17.5.28,1.12.32,1.87.04.75.01,1.5-.07,2.25-.09.75-.24,1.38-.45,1.9-.88-.1-1.99-.19-3.32-.29-1.33-.1-2.78-.14-4.35-.14s-3.1.03-4.57.1-3.05.18-4.74.33Z"/>
  </g>
</svg>