<?xml version="1.0" encoding="utf-8"?>
<!-- Generator: Adobe Illustrator 27.8.1, SVG Export Plug-In . SVG Version: 6.00 Build 0)  -->
<svg version="1.1" id="Capa_1" xmlns="http://www.w3.org/2000/svg" xmlns:xlink="http://www.w3.org/1999/xlink" x="0px" y="0px"
	 viewBox="0 0 512 556" style="enable-background:new 0 0 512 556;" xml:space="preserve">
<style type="text/css">
	.st0{fill:#755512;}
	.st1{fill:#EBAB25;}
</style>
<g>
	<g>
		<g>
			<path class="st0" d="M402,304.1c63.3-10.7,105.9-70.6,95.2-133.8c-7-41.6-36-76.1-75.8-90.2V39.8H86v42.1
				c-59.5,23.9-88.4,91.6-64.4,151.1c14.4,35.8,45.6,62.1,83.3,70.2c19.6,37.8,52.8,66.7,92.9,80.9v47h-18.6
				c-30.9,0-55.9,25-55.9,55.9s25,55.9,55.9,55.9h149c30.9,0,55.9-25,55.9-55.9s-25-55.9-55.9-55.9h-18.6v-47
				C349.3,370,382.3,341.4,402,304.1z M461.6,189.5c0.1,30-16.9,57.4-43.8,70.7c2.4-11.2,3.6-22.6,3.6-34.1V120.7
				C446.3,134.6,461.7,160.9,461.6,189.5L461.6,189.5z M50.5,189.5c-0.1-26.6,13.3-51.4,35.5-66v102.6c0,10.4,1,20.8,3,31.1
				C65.1,243,50.5,217.3,50.5,189.5L50.5,189.5z"/>
		</g>
	</g>
	<g>
		<path class="st1" d="M402,283.3c63.3-10.7,105.9-70.6,95.2-133.8c-7-41.6-36-76.1-75.8-90.2V19H86v42.1
			C26.5,85-2.3,152.7,21.6,212.2c14.4,35.8,45.6,62.1,83.3,70.2c19.6,37.8,52.8,66.7,92.9,80.9v47h-18.6c-30.9,0-55.9,25-55.9,55.9
			s25,55.9,55.9,55.9h149c30.9,0,55.9-25,55.9-55.9s-25-55.9-55.9-55.9h-18.6v-47C349.3,349.2,382.3,320.7,402,283.3z M461.6,168.7
			c0.1,30-16.9,57.4-43.8,70.7c2.4-11.2,3.6-22.6,3.6-34.1V99.9C446.3,113.8,461.7,140.2,461.6,168.7L461.6,168.7z M50.5,168.7
			c-0.1-26.6,13.3-51.4,35.5-66v102.6c0,10.4,1,20.8,3,31.1C65.1,222.2,50.5,196.5,50.5,168.7L50.5,168.7z"/>
	</g>
</g>
<g>
	<g>
		<path class="st0" d="M385.4,215.4l-12.5-9.1c-1.4-21.6-9.5-40.1-24-55.1c-6.2-6.3-13.2-11.8-20.8-16.3c2.9-13.4,2-27.1-2.7-39
			c-5.4-13.5-15.2-23.9-27.8-29.2c-13.9-5.9-29.6-5.2-44.2,2.1c-6.3,3.2-12.1,7.3-17,12.3c-15.4-18.8-38.6-26.9-59.5-20.4
			c-29.5,9.2-44.8,44.3-34.3,78.3c1.9,6.2,4.6,12.1,8.1,17.6c-9.7,14.5-15.2,31.7-16.2,50.8c-1.3,27.1,6.8,51.3,23.6,70.1
			c5,5.6,10.7,10.6,16.9,14.9l-2.9,4.8c-1.5,2.5-0.7,5.7,1.8,7.1s5.7,0.7,7.1-1.8l0,0l2.8-4.7c13,7.1,28,11.8,44.6,13.7
			c1.8,0.2,3.6,0.4,5.4,0.6l-0.3,5.9c-0.2,2.9,2,5.3,4.9,5.5c0,0,0,0,0,0h0.3c2.8,0,5.1-2.2,5.2-4.9l0.3-5.8c2,0.1,4.1,0.1,6.2,0.1
			c13.5,0,27-1.4,40.2-4.3l2.4,5.8c1.1,2.7,4.1,3.9,6.8,2.9c2.7-1.1,3.9-4.1,2.9-6.8l0,0l-1.8-4.6c6.7-1.9,13.2-4.4,19.5-7.4
			c0.2-0.1,0.3-0.2,0.5-0.3c7.6-3.6,14.7-8.1,21.2-13.5l2.7,3.1c1.9,2.2,5.2,2.4,7.3,0.5c2.2-1.9,2.4-5.2,0.5-7.3l0,0l-3-3.5
			c11.7-12.4,19.1-27.7,22.1-45.6l13.4-7.8c2.5-1.4,3.3-4.6,1.9-7.1C386.5,216.4,386,215.8,385.4,215.4L385.4,215.4z M258,78
			c11.8-5.9,24.4-6.5,35.5-1.8c10,4.2,17.8,12.6,22.2,23.5c3.6,9.2,4.6,19.6,2.9,30c-0.2-0.1-0.5-0.2-0.7-0.3h0
			c-19.1-9.2-39-13.4-54.9-15.1c1.5-2,3.1-4,4.9-5.8c1.2,0.4,2.4,0.6,3.6,0.6c6.6,0,11.9-5.3,11.9-11.9c0-1.4-0.2-2.8-0.7-4.1
			c-2.4-6.1-9.3-9.1-15.4-6.7c-5.9,2.3-9,8.9-6.9,14.9v0c-3.6,3.6-6.6,7.6-9.2,12l-1.9-0.1l-1.4-0.1c-0.8,0-1.5-0.1-2.3-0.1h-1
			l-2.6,0h-0.7c-1,0-2,0-2.9,0s-1.7,0-2.6,0.1l-1.9,0.1l-0.6,0c-1.6,0.1-3.3,0.2-4.9,0.3c0-0.1,0-0.1,0.1-0.2
			c0.3-0.8,0.5-1.6,0.8-2.3l0.1-0.4c0.3-0.8,0.6-1.6,0.9-2.4c0.3-0.8,0.7-1.6,1-2.3c0.1-0.3,0.3-0.6,0.4-0.8
			c0.2-0.5,0.5-0.9,0.7-1.4c0.2-0.4,0.4-0.7,0.6-1.1s0.4-0.7,0.6-1c0.2-0.3,0.5-0.8,0.7-1.3l0.5-0.7c0.3-0.5,0.6-1,0.9-1.5l0.2-0.3
			c1.2-1.8,2.5-3.6,4-5.3c0.1-0.1,0.1-0.2,0.2-0.3C245.1,86.3,251.2,81.5,258,78z M152.5,135.8c-8.9-28.5,3.4-57.8,27.5-65.3
			c3.7-1.2,7.6-1.8,11.5-1.8c14,0,28,7.3,38,20.3c-1.7,2.3-3.3,4.8-4.7,7.3l0,0.1c-0.7,1.2-1.4,2.5-2,3.7c-0.1,0.1-0.1,0.2-0.1,0.3
			c-0.2,0.5-0.5,1-0.7,1.5l-0.2,0.5c-0.3,0.6-0.5,1.2-0.8,1.8c-0.3,0.8-0.6,1.6-0.9,2.4l-0.2,0.6c-0.3,0.8-0.6,1.6-0.9,2.4
			c0,0,0,0.1,0,0.1c-0.3,0.8-0.5,1.6-0.7,2.3l-0.2,0.6c-0.2,0.8-0.5,1.6-0.7,2.4l0,0c-7.7,1.4-15.3,3.5-22.6,6.4
			c-0.4-3.5-0.5-7-0.2-10.5c5.5-2.5,8.3-8.7,6.4-14.5l0,0c-2-6.3-8.7-9.7-15-7.7c-6.3,2-9.7,8.7-7.7,15c1,3,3,5.4,5.8,6.9
			c-0.3,5.1-0.1,10.3,0.8,15.3c-4.6,2.4-8.9,5.2-13.1,8.3l-0.3,0.2l-1.3,1l-1,0.8l-0.9,0.8l-1.3,1.1l-0.4,0.4
			c-0.4,0.4-0.8,0.7-1.3,1.1l-0.2,0.2l-0.2,0.2c-0.4,0.4-0.8,0.7-1.2,1.1l-0.5,0.4c-0.4,0.3-0.7,0.7-1,1c-0.2,0.2-0.4,0.4-0.6,0.6
			l-0.4,0.4c-1.2,1.3-2.4,2.5-3.5,3.9C155.5,143.8,153.8,139.9,152.5,135.8z M229.7,301.1c-16.9-2-32-7-44.7-14.8l-0.2-0.1
			c0,0-0.1-0.1-0.1-0.1c-7-4.3-13.3-9.6-18.8-15.7c-14.9-16.7-22.2-38.3-21-62.6c0.9-18.3,6.4-34.6,16.1-48c0.1-0.1,0.1-0.1,0.2-0.2
			c1.3-1.7,2.6-3.4,4-5l0.3-0.4c0.3-0.3,0.6-0.7,0.9-1l1-1.1c0.1-0.1,0.2-0.2,0.2-0.2c1.4-1.5,2.8-2.9,4.4-4.3
			c4.7-4.3,9.9-8.1,15.4-11.2c2.7,8.1,6.1,13.1,6.4,13.5c1.5,2.5,4.7,3.2,7.1,1.7c2.5-1.5,3.2-4.7,1.7-7.1c-0.1-0.1-0.2-0.3-0.3-0.4
			c-2.4-3.9-4.2-8-5.5-12.4c1.7-0.7,3.4-1.4,5.1-2c6.6-2.3,13.4-4,20.3-5l0,0c3.2-0.5,6.5-0.8,9.9-1.1l0.4,0l1.6-0.1l0.9,0l1.2-0.1
			c0.6,0,1.2,0,1.9,0h0.4h0.5h2.4h1.8h1.1l1.7,0c-2.5,6.1-4.3,12.5-5.3,19c-0.4,2.8,1.7,5.4,4.5,5.8c0,0,0,0,0,0c0.2,0,0.4,0,0.6,0
			c2.6,0,4.8-2,5.1-4.6c1.1-6.8,3.1-13.4,6-19.7c13.1,1.1,26,3.7,38.6,7.7c3.9,10.2,9.7,29.5,11.2,56.5
			c1.9,34.6-3.9,71.5-17.1,109.8C269.3,302.8,247.6,303.2,229.7,301.1z M326.8,282.9c16.8-59.2,12.7-104.5,6.3-132
			c3,2.3,5.8,4.8,8.4,7.5c13.3,13.7,20.4,30.8,21.2,51c0,0.6,0,1.2,0.1,1.8c0,0.1,0,0.3,0,0.4c0,0.7,0,1.4,0,2.1v0.2
			c0,0.7,0,1.4,0,2.1c0,0.1,0,0.2,0,0.3c0,0.8-0.1,1.6-0.1,2.3c-0.2,3.1-0.5,6.2-0.9,9.3c0,0,0,0,0,0.1
			c-2.9,19.9-11.6,36.1-26.1,48.4C332.8,278.7,329.8,280.9,326.8,282.9L326.8,282.9z"/>
	</g>
	<g>
		<circle class="st0" cx="264.9" cy="207.4" r="10"/>
	</g>
	<g>
		<path class="st0" d="M199.5,207.5c0-2.1-1.2-3.9-3.1-4.8l-13.1-5.7c-2.6-1.3-5.7-0.2-6.9,2.4s-0.2,5.7,2.4,6.9
			c0.1,0.1,0.3,0.1,0.4,0.2l2.3,1l-2.3,1c-2.6,1.2-3.7,4.3-2.5,6.9c1.2,2.5,4.1,3.6,6.6,2.6l13.1-5.7
			C198.3,211.4,199.5,209.5,199.5,207.5z"/>
	</g>
	<g>
		<path class="st0" d="M248.8,217h-46.6c-2.9,0-5.2,2.3-5.2,5.2c0.2,15.7,13.1,28.3,28.9,28.1c15.4-0.2,27.9-12.7,28.1-28.1
			C254,219.4,251.7,217,248.8,217z M242.8,227.4c-0.5,1.6-1.2,3.2-2.1,4.6h-30.5c-0.9-1.4-1.6-3-2.1-4.6H242.8z"/>
	</g>
</g>
</svg>
